<svg xmlns="http://www.w3.org/2000/svg" viewBox="0 -0.23999999463558197 1131.6400146484375 179.0014190673828" data-asc="0.9052734375" width="1131.6400146484375" height="179.0014190673828"><defs/><g fill="#ff9e00"><g transform="translate(0, 0)"><path d="M0-0.24L3.05-0.24L3.05 2.81L0 2.81L0-0.24M12.16-0.24L15.21-0.24L15.21 2.81L12.16 2.81L12.16-0.24M24.34-0.24L27.39-0.24L27.39 2.81L24.34 2.81L24.34-0.24M6.08 5.83L9.13 5.83L9.13 8.89L6.08 8.89L6.08 5.83M18.26 5.83L21.29 5.83L21.29 8.89L18.26 8.89L18.26 5.83M30.42 5.83L33.47 5.83L33.47 8.89L30.42 8.89L30.42 5.83M24.34 11.91L27.39 11.91L27.39 14.97L24.34 14.97L24.34 11.91M12.16 11.91L15.21 11.91L15.21 14.97L12.16 14.97L12.16 11.91M0 11.91L3.05 11.91L3.05 14.97L0 14.97L0 11.91M30.42 18.02L33.47 18.02L33.47 21.04L30.42 21.04L30.42 18.02M18.26 18.02L21.29 18.02L21.29 21.04L18.26 21.04L18.26 18.02M6.08 18.02L9.13 18.02L9.13 21.04L6.08 21.04L6.08 18.02M0 24.10L3.05 24.10L3.05 27.15L0 27.15L0 24.10M12.16 24.10L15.21 24.10L15.21 27.15L12.16 27.15L12.16 24.10M24.34 24.10L27.39 24.10L27.39 27.15L24.34 27.15L24.34 24.10M30.42 30.18L33.47 30.18L33.47 33.23L30.42 33.23L30.42 30.18M18.26 30.18L21.29 30.18L21.29 33.23L18.26 33.23L18.26 30.18M6.08 30.18L9.13 30.18L9.13 33.23L6.08 33.23L6.08 30.18M0 36.25L3.05 36.25L3.05 39.31L0 39.31L0 36.25M12.16 36.25L15.21 36.25L15.21 39.31L12.16 39.31L12.16 36.25M24.34 36.25L27.39 36.25L27.39 39.31L24.34 39.31L24.34 36.25M6.08 42.36L9.13 42.36L9.13 45.39L6.08 45.39L6.08 42.36M18.26 42.36L21.29 42.36L21.29 45.39L18.26 45.39L18.26 42.36M30.42 42.36L33.47 42.36L33.47 45.39L30.42 45.39L30.42 42.36M24.34 48.44L27.39 48.44L27.39 51.49L24.34 51.49L24.34 48.44M12.16 48.44L15.21 48.44L15.21 51.49L12.16 51.49L12.16 48.44M0 48.44L3.05 48.44L3.05 51.49L0 51.49L0 48.44M6.08 54.52L9.13 54.52L9.13 57.57L6.08 57.57L6.08 54.52M18.26 54.52L21.29 54.52L21.29 57.57L18.26 57.57L18.26 54.52M30.42 54.52L33.47 54.52L33.47 57.57L30.42 57.57L30.42 54.52ZM32.37 60.42L32.37-0.24L68.90-0.24L68.90 60.42L32.37 60.42ZM104.32 30.10L67.80 30.10L67.80-0.24L104.32-0.24L104.32 30.10ZM139.75 30.10L103.22 30.10L103.22-0.24L139.75-0.24L139.75 30.10ZM141.70-0.24L144.75-0.24L144.75 2.81L141.70 2.81L141.70-0.24M153.86-0.24L156.91-0.24L156.91 2.81L153.86 2.81L153.86-0.24M166.04-0.24L169.09-0.24L169.09 2.81L166.04 2.81L166.04-0.24M147.78 5.83L150.83 5.83L150.83 8.89L147.78 8.89L147.78 5.83M159.96 5.83L162.99 5.83L162.99 8.89L159.96 8.89L159.96 5.83M172.12 5.83L175.17 5.83L175.17 8.89L172.12 8.89L172.12 5.83M166.04 11.91L169.09 11.91L169.09 14.97L166.04 14.97L166.04 11.91M153.86 11.91L156.91 11.91L156.91 14.97L153.86 14.97L153.86 11.91M141.70 11.91L144.75 11.91L144.75 14.97L141.70 14.97L141.70 11.91M172.12 18.02L175.17 18.02L175.17 21.04L172.12 21.04L172.12 18.02M159.96 18.02L162.99 18.02L162.99 21.04L159.96 21.04L159.96 18.02M147.78 18.02L150.83 18.02L150.83 21.04L147.78 21.04L147.78 18.02M141.70 24.10L144.75 24.10L144.75 27.15L141.70 27.15L141.70 24.10M153.86 24.10L156.91 24.10L156.91 27.15L153.86 27.15L153.86 24.10M166.04 24.10L169.09 24.10L169.09 27.15L166.04 27.15L166.04 24.10M172.12 30.18L175.17 30.18L175.17 33.23L172.12 33.23L172.12 30.18M159.96 30.18L162.99 30.18L162.99 33.23L159.96 33.23L159.96 30.18M147.78 30.18L150.83 30.18L150.83 33.23L147.78 33.23L147.78 30.18M141.70 36.25L144.75 36.25L144.75 39.31L141.70 39.31L141.70 36.25M153.86 36.25L156.91 36.25L156.91 39.31L153.86 39.31L153.86 36.25M166.04 36.25L169.09 36.25L169.09 39.31L166.04 39.31L166.04 36.25M147.78 42.36L150.83 42.36L150.83 45.39L147.78 45.39L147.78 42.36M159.96 42.36L162.99 42.36L162.99 45.39L159.96 45.39L159.96 42.36M172.12 42.36L175.17 42.36L175.17 45.39L172.12 45.39L172.12 42.36M166.04 48.44L169.09 48.44L169.09 51.49L166.04 51.49L166.04 48.44M153.86 48.44L156.91 48.44L156.91 51.49L153.86 51.49L153.86 48.44M141.70 48.44L144.75 48.44L144.75 51.49L141.70 51.49L141.70 48.44M147.78 54.52L150.83 54.52L150.83 57.57L147.78 57.57L147.78 54.52M159.96 54.52L162.99 54.52L162.99 57.57L159.96 57.57L159.96 54.52M172.12 54.52L175.17 54.52L175.17 57.57L172.12 57.57L172.12 54.52ZM174.07 60.42L174.07-0.24L210.60-0.24L210.60 60.42L174.07 60.42ZM246.02 30.10L209.50 30.10L209.50-0.24L246.02-0.24L246.02 30.10ZM244.92 60.42L244.92-0.24L281.45-0.24L281.45 60.42L244.92 60.42ZM283.40-0.24L286.45-0.24L286.45 2.81L283.40 2.81L283.40-0.24M295.56-0.24L298.61-0.24L298.61 2.81L295.56 2.81L295.56-0.24M307.74-0.24L310.79-0.24L310.79 2.81L307.74 2.81L307.74-0.24M289.48 5.83L292.53 5.83L292.53 8.89L289.48 8.89L289.48 5.83M301.66 5.83L304.69 5.83L304.69 8.89L301.66 8.89L301.66 5.83M313.82 5.83L316.87 5.83L316.87 8.89L313.82 8.89L313.82 5.83M307.74 11.91L310.79 11.91L310.79 14.97L307.74 14.97L307.74 11.91M295.56 11.91L298.61 11.91L298.61 14.97L295.56 14.97L295.56 11.91M283.40 11.91L286.45 11.91L286.45 14.97L283.40 14.97L283.40 11.91M313.82 18.02L316.87 18.02L316.87 21.04L313.82 21.04L313.82 18.02M301.66 18.02L304.69 18.02L304.69 21.04L301.66 21.04L301.66 18.02M289.48 18.02L292.53 18.02L292.53 21.04L289.48 21.04L289.48 18.02M283.40 24.10L286.45 24.10L286.45 27.15L283.40 27.15L283.40 24.10M295.56 24.10L298.61 24.10L298.61 27.15L295.56 27.15L295.56 24.10M307.74 24.10L310.79 24.10L310.79 27.15L307.74 27.15L307.74 24.10M313.82 30.18L316.87 30.18L316.87 33.23L313.82 33.23L313.82 30.18M301.66 30.18L304.69 30.18L304.69 33.23L301.66 33.23L301.66 30.18M289.48 30.18L292.53 30.18L292.53 33.23L289.48 33.23L289.48 30.18M283.40 36.25L286.45 36.25L286.45 39.31L283.40 39.31L283.40 36.25M295.56 36.25L298.61 36.25L298.61 39.31L295.56 39.31L295.56 36.25M307.74 36.25L310.79 36.25L310.79 39.31L307.74 39.31L307.74 36.25M289.48 42.36L292.53 42.36L292.53 45.39L289.48 45.39L289.48 42.36M301.66 42.36L304.69 42.36L304.69 45.39L301.66 45.39L301.66 42.36M313.82 42.36L316.87 42.36L316.87 45.39L313.82 45.39L313.82 42.36M307.74 48.44L310.79 48.44L310.79 51.49L307.74 51.49L307.74 48.44M295.56 48.44L298.61 48.44L298.61 51.49L295.56 51.49L295.56 48.44M283.40 48.44L286.45 48.44L286.45 51.49L283.40 51.49L283.40 48.44M289.48 54.52L292.53 54.52L292.53 57.57L289.48 57.57L289.48 54.52M301.66 54.52L304.69 54.52L304.69 57.57L301.66 57.57L301.66 54.52M313.82 54.52L316.87 54.52L316.87 57.57L313.82 57.57L313.82 54.52ZM315.77 60.42L315.77-0.24L352.29-0.24L352.29 60.42L315.77 60.42ZM387.72 30.10L351.20 30.10L351.20-0.24L387.72-0.24L387.72 30.10ZM386.62 60.42L386.62-0.24L423.14-0.24L423.14 60.42L386.62 60.42ZM425.10-0.24L428.15-0.24L428.15 2.81L425.10 2.81L425.10-0.24M437.26-0.24L440.31-0.24L440.31 2.81L437.26 2.81L437.26-0.24M449.44-0.24L452.49-0.24L452.49 2.81L449.44 2.81L449.44-0.24M431.18 5.83L434.23 5.83L434.23 8.89L431.18 8.89L431.18 5.83M443.36 5.83L446.39 5.83L446.39 8.89L443.36 8.89L443.36 5.83M455.52 5.83L458.57 5.83L458.57 8.89L455.52 8.89L455.52 5.83M449.44 11.91L452.49 11.91L452.49 14.97L449.44 14.97L449.44 11.91M437.26 11.91L440.31 11.91L440.31 14.97L437.26 14.97L437.26 11.91M425.10 11.91L428.15 11.91L428.15 14.97L425.10 14.97L425.10 11.91M455.52 18.02L458.57 18.02L458.57 21.04L455.52 21.04L455.52 18.02M443.36 18.02L446.39 18.02L446.39 21.04L443.36 21.04L443.36 18.02M431.18 18.02L434.23 18.02L434.23 21.04L431.18 21.04L431.18 18.02M425.10 24.10L428.15 24.10L428.15 27.15L425.10 27.15L425.10 24.10M437.26 24.10L440.31 24.10L440.31 27.15L437.26 27.15L437.26 24.10M449.44 24.10L452.49 24.10L452.49 27.15L449.44 27.15L449.44 24.10M455.52 30.18L458.57 30.18L458.57 33.23L455.52 33.23L455.52 30.18M443.36 30.18L446.39 30.18L446.39 33.23L443.36 33.23L443.36 30.18M431.18 30.18L434.23 30.18L434.23 33.23L431.18 33.23L431.18 30.18M425.10 36.25L428.15 36.25L428.15 39.31L425.10 39.31L425.10 36.25M437.26 36.25L440.31 36.25L440.31 39.31L437.26 39.31L437.26 36.25M449.44 36.25L452.49 36.25L452.49 39.31L449.44 39.31L449.44 36.25M431.18 42.36L434.23 42.36L434.23 45.39L431.18 45.39L431.18 42.36M443.36 42.36L446.39 42.36L446.39 45.39L443.36 45.39L443.36 42.36M455.52 42.36L458.57 42.36L458.57 45.39L455.52 45.39L455.52 42.36M449.44 48.44L452.49 48.44L452.49 51.49L449.44 51.49L449.44 48.44M437.26 48.44L440.31 48.44L440.31 51.49L437.26 51.49L437.26 48.44M425.10 48.44L428.15 48.44L428.15 51.49L425.10 51.49L425.10 48.44M431.18 54.52L434.23 54.52L434.23 57.57L431.18 57.57L431.18 54.52M443.36 54.52L446.39 54.52L446.39 57.57L443.36 57.57L443.36 54.52M455.52 54.52L458.57 54.52L458.57 57.57L455.52 57.57L455.52 54.52ZM457.47 60.42L457.47-0.24L493.99-0.24L493.99 60.42L457.47 60.42ZM529.42 30.10L492.90 30.10L492.90-0.24L529.42-0.24L529.42 30.10ZM564.84 60.42L528.32 60.42L528.32 30.10L564.84 30.10L564.84 60.42ZM566.80-0.24L569.85-0.24L569.85 2.81L566.80 2.81L566.80-0.24M578.96-0.24L582.01-0.24L582.01 2.81L578.96 2.81L578.96-0.24M591.14-0.24L594.19-0.24L594.19 2.81L591.14 2.81L591.14-0.24M572.88 5.83L575.93 5.83L575.93 8.89L572.88 8.89L572.88 5.83M585.06 5.83L588.09 5.83L588.09 8.89L585.06 8.89L585.06 5.83M597.22 5.83L600.27 5.83L600.27 8.89L597.22 8.89L597.22 5.83M591.14 11.91L594.19 11.91L594.19 14.97L591.14 14.97L591.14 11.91M578.96 11.91L582.01 11.91L582.01 14.97L578.96 14.97L578.96 11.91M566.80 11.91L569.85 11.91L569.85 14.97L566.80 14.97L566.80 11.91M597.22 18.02L600.27 18.02L600.27 21.04L597.22 21.04L597.22 18.02M585.06 18.02L588.09 18.02L588.09 21.04L585.06 21.04L585.06 18.02M572.88 18.02L575.93 18.02L575.93 21.04L572.88 21.04L572.88 18.02M566.80 24.10L569.85 24.10L569.85 27.15L566.80 27.15L566.80 24.10M578.96 24.10L582.01 24.10L582.01 27.15L578.96 27.15L578.96 24.10M591.14 24.10L594.19 24.10L594.19 27.15L591.14 27.15L591.14 24.10M597.22 30.18L600.27 30.18L600.27 33.23L597.22 33.23L597.22 30.18M585.06 30.18L588.09 30.18L588.09 33.23L585.06 33.23L585.06 30.18M572.88 30.18L575.93 30.18L575.93 33.23L572.88 33.23L572.88 30.18M566.80 36.25L569.85 36.25L569.85 39.31L566.80 39.31L566.80 36.25M578.96 36.25L582.01 36.25L582.01 39.31L578.96 39.31L578.96 36.25M591.14 36.25L594.19 36.25L594.19 39.31L591.14 39.31L591.14 36.25M572.88 42.36L575.93 42.36L575.93 45.39L572.88 45.39L572.88 42.36M585.06 42.36L588.09 42.36L588.09 45.39L585.06 45.39L585.06 42.36M597.22 42.36L600.27 42.36L600.27 45.39L597.22 45.39L597.22 42.36M591.14 48.44L594.19 48.44L594.19 51.49L591.14 51.49L591.14 48.44M578.96 48.44L582.01 48.44L582.01 51.49L578.96 51.49L578.96 48.44M566.80 48.44L569.85 48.44L569.85 51.49L566.80 51.49L566.80 48.44M572.88 54.52L575.93 54.52L575.93 57.57L572.88 57.57L572.88 54.52M585.06 54.52L588.09 54.52L588.09 57.57L585.06 57.57L585.06 54.52M597.22 54.52L600.27 54.52L600.27 57.57L597.22 57.57L597.22 54.52ZM599.17 60.42L599.17-0.24L635.69-0.24L635.69 60.42L599.17 60.42ZM671.12 30.10L634.59 30.10L634.59-0.24L671.12-0.24L671.12 30.10ZM706.54 30.10L670.02 30.10L670.02-0.24L706.54-0.24L706.54 30.10ZM708.50-0.24L711.55-0.24L711.55 2.81L708.50 2.81L708.50-0.24M720.65-0.24L723.71-0.24L723.71 2.81L720.65 2.81L720.65-0.24M732.84-0.24L735.89-0.24L735.89 2.81L732.84 2.81L732.84-0.24M714.58 5.83L717.63 5.83L717.63 8.89L714.58 8.89L714.58 5.83M726.76 5.83L729.79 5.83L729.79 8.89L726.76 8.89L726.76 5.83M738.92 5.83L741.97 5.83L741.97 8.89L738.92 8.89L738.92 5.83M732.84 11.91L735.89 11.91L735.89 14.97L732.84 14.97L732.84 11.91M720.65 11.91L723.71 11.91L723.71 14.97L720.65 14.97L720.65 11.91M708.50 11.91L711.55 11.91L711.55 14.97L708.50 14.97L708.50 11.91M738.92 18.02L741.97 18.02L741.97 21.04L738.92 21.04L738.92 18.02M726.76 18.02L729.79 18.02L729.79 21.04L726.76 21.04L726.76 18.02M714.58 18.02L717.63 18.02L717.63 21.04L714.58 21.04L714.58 18.02M708.50 24.10L711.55 24.10L711.55 27.15L708.50 27.15L708.50 24.10M720.65 24.10L723.71 24.10L723.71 27.15L720.65 27.15L720.65 24.10M732.84 24.10L735.89 24.10L735.89 27.15L732.84 27.15L732.84 24.10M738.92 30.18L741.97 30.18L741.97 33.23L738.92 33.23L738.92 30.18M726.76 30.18L729.79 30.18L729.79 33.23L726.76 33.23L726.76 30.18M714.58 30.18L717.63 30.18L717.63 33.23L714.58 33.23L714.58 30.18M708.50 36.25L711.55 36.25L711.55 39.31L708.50 39.31L708.50 36.25M720.65 36.25L723.71 36.25L723.71 39.31L720.65 39.31L720.65 36.25M732.84 36.25L735.89 36.25L735.89 39.31L732.84 39.31L732.84 36.25M714.58 42.36L717.63 42.36L717.63 45.39L714.58 45.39L714.58 42.36M726.76 42.36L729.79 42.36L729.79 45.39L726.76 45.39L726.76 42.36M738.92 42.36L741.97 42.36L741.97 45.39L738.92 45.39L738.92 42.36M732.84 48.44L735.89 48.44L735.89 51.49L732.84 51.49L732.84 48.44M720.65 48.44L723.71 48.44L723.71 51.49L720.65 51.49L720.65 48.44M708.50 48.44L711.55 48.44L711.55 51.49L708.50 51.49L708.50 48.44M714.58 54.52L717.63 54.52L717.63 57.57L714.58 57.57L714.58 54.52M726.76 54.52L729.79 54.52L729.79 57.57L726.76 57.57L726.76 54.52M738.92 54.52L741.97 54.52L741.97 57.57L738.92 57.57L738.92 54.52ZM740.87 60.42L740.87-0.24L777.39-0.24L777.39 60.42L740.87 60.42ZM779.35-0.24L782.40-0.24L782.40 2.81L779.35 2.81L779.35-0.24M791.50-0.24L794.56-0.24L794.56 2.81L791.50 2.81L791.50-0.24M803.69-0.24L806.74-0.24L806.74 2.81L803.69 2.81L803.69-0.24M785.42 5.83L788.48 5.83L788.48 8.89L785.42 8.89L785.42 5.83M797.61 5.83L800.63 5.83L800.63 8.89L797.61 8.89L797.61 5.83M809.77 5.83L812.82 5.83L812.82 8.89L809.77 8.89L809.77 5.83M803.69 11.91L806.74 11.91L806.74 14.97L803.69 14.97L803.69 11.91M791.50 11.91L794.56 11.91L794.56 14.97L791.50 14.97L791.50 11.91M779.35 11.91L782.40 11.91L782.40 14.97L779.35 14.97L779.35 11.91M809.77 18.02L812.82 18.02L812.82 21.04L809.77 21.04L809.77 18.02M797.61 18.02L800.63 18.02L800.63 21.04L797.61 21.04L797.61 18.02M785.42 18.02L788.48 18.02L788.48 21.04L785.42 21.04L785.42 18.02M779.35 24.10L782.40 24.10L782.40 27.15L779.35 27.15L779.35 24.10M791.50 24.10L794.56 24.10L794.56 27.15L791.50 27.15L791.50 24.10M803.69 24.10L806.74 24.10L806.74 27.15L803.69 27.15L803.69 24.10M809.77 30.18L812.82 30.18L812.82 33.23L809.77 33.23L809.77 30.18M797.61 30.18L800.63 30.18L800.63 33.23L797.61 33.23L797.61 30.18M785.42 30.18L788.48 30.18L788.48 33.23L785.42 33.23L785.42 30.18M779.35 36.25L782.40 36.25L782.40 39.31L779.35 39.31L779.35 36.25M791.50 36.25L794.56 36.25L794.56 39.31L791.50 39.31L791.50 36.25M803.69 36.25L806.74 36.25L806.74 39.31L803.69 39.31L803.69 36.25M785.42 42.36L788.48 42.36L788.48 45.39L785.42 45.39L785.42 42.36M797.61 42.36L800.63 42.36L800.63 45.39L797.61 45.39L797.61 42.36M809.77 42.36L812.82 42.36L812.82 45.39L809.77 45.39L809.77 42.36M803.69 48.44L806.74 48.44L806.74 51.49L803.69 51.49L803.69 48.44M791.50 48.44L794.56 48.44L794.56 51.49L791.50 51.49L791.50 48.44M779.35 48.44L782.40 48.44L782.40 51.49L779.35 51.49L779.35 48.44M785.42 54.52L788.48 54.52L788.48 57.57L785.42 57.57L785.42 54.52M797.61 54.52L800.63 54.52L800.63 57.57L797.61 57.57L797.61 54.52M809.77 54.52L812.82 54.52L812.82 57.57L809.77 57.57L809.77 54.52ZM811.72 60.42L811.72-0.24L848.24-0.24L848.24 60.42L811.72 60.42ZM850.20-0.24L853.25-0.24L853.25 2.81L850.20 2.81L850.20-0.24M862.35-0.24L865.41-0.24L865.41 2.81L862.35 2.81L862.35-0.24M874.54-0.24L877.59-0.24L877.59 2.81L874.54 2.81L874.54-0.24M856.27 5.83L859.33 5.83L859.33 8.89L856.27 8.89L856.27 5.83M868.46 5.83L871.48 5.83L871.48 8.89L868.46 8.89L868.46 5.83M880.62 5.83L883.67 5.83L883.67 8.89L880.62 8.89L880.62 5.83M874.54 11.91L877.59 11.91L877.59 14.97L874.54 14.97L874.54 11.91M862.35 11.91L865.41 11.91L865.41 14.97L862.35 14.97L862.35 11.91M850.20 11.91L853.25 11.91L853.25 14.97L850.20 14.97L850.20 11.91M880.62 18.02L883.67 18.02L883.67 21.04L880.62 21.04L880.62 18.02M868.46 18.02L871.48 18.02L871.48 21.04L868.46 21.04L868.46 18.02M856.27 18.02L859.33 18.02L859.33 21.04L856.27 21.04L856.27 18.02M850.20 24.10L853.25 24.10L853.25 27.15L850.20 27.15L850.20 24.10M862.35 24.10L865.41 24.10L865.41 27.15L862.35 27.15L862.35 24.10M874.54 24.10L877.59 24.10L877.59 27.15L874.54 27.15L874.54 24.10M880.62 30.18L883.67 30.18L883.67 33.23L880.62 33.23L880.62 30.18M868.46 30.18L871.48 30.18L871.48 33.23L868.46 33.23L868.46 30.18M856.27 30.18L859.33 30.18L859.33 33.23L856.27 33.23L856.27 30.18M850.20 36.25L853.25 36.25L853.25 39.31L850.20 39.31L850.20 36.25M862.35 36.25L865.41 36.25L865.41 39.31L862.35 39.31L862.35 36.25M874.54 36.25L877.59 36.25L877.59 39.31L874.54 39.31L874.54 36.25M856.27 42.36L859.33 42.36L859.33 45.39L856.27 45.39L856.27 42.36M868.46 42.36L871.48 42.36L871.48 45.39L868.46 45.39L868.46 42.36M880.62 42.36L883.67 42.36L883.67 45.39L880.62 45.39L880.62 42.36M874.54 48.44L877.59 48.44L877.59 51.49L874.54 51.49L874.54 48.44M862.35 48.44L865.41 48.44L865.41 51.49L862.35 51.49L862.35 48.44M850.20 48.44L853.25 48.44L853.25 51.49L850.20 51.49L850.20 48.44M856.27 54.52L859.33 54.52L859.33 57.57L856.27 57.57L856.27 54.52M868.46 54.52L871.48 54.52L871.48 57.57L868.46 57.57L868.46 54.52M880.62 54.52L883.67 54.52L883.67 57.57L880.62 57.57L880.62 54.52ZM882.57 60.42L882.57-0.24L919.09-0.24L919.09 60.42L882.57 60.42ZM954.52 30.10L917.99 30.10L917.99-0.24L954.52-0.24L954.52 30.10ZM953.42 60.42L953.42-0.24L989.94-0.24L989.94 60.42L953.42 60.42ZM991.89-0.24L994.95-0.24L994.95 2.81L991.89 2.81L991.89-0.24M1004.05-0.24L1007.10-0.24L1007.10 2.81L1004.05 2.81L1004.05-0.24M1016.24-0.24L1019.29-0.24L1019.29 2.81L1016.24 2.81L1016.24-0.24M997.97 5.83L1001.03 5.83L1001.03 8.89L997.97 8.89L997.97 5.83M1010.16 5.83L1013.18 5.83L1013.18 8.89L1010.16 8.89L1010.16 5.83M1022.31 5.83L1025.37 5.83L1025.37 8.89L1022.31 8.89L1022.31 5.83M1016.24 11.91L1019.29 11.91L1019.29 14.97L1016.24 14.97L1016.24 11.91M1004.05 11.91L1007.10 11.91L1007.10 14.97L1004.05 14.97L1004.05 11.91M991.89 11.91L994.95 11.91L994.95 14.97L991.89 14.97L991.89 11.91M1022.31 18.02L1025.37 18.02L1025.37 21.04L1022.31 21.04L1022.31 18.02M1010.16 18.02L1013.18 18.02L1013.18 21.04L1010.16 21.04L1010.16 18.02M997.97 18.02L1001.03 18.02L1001.03 21.04L997.97 21.04L997.97 18.02M991.89 24.10L994.95 24.10L994.95 27.15L991.89 27.15L991.89 24.10M1004.05 24.10L1007.10 24.10L1007.10 27.15L1004.05 27.15L1004.05 24.10M1016.24 24.10L1019.29 24.10L1019.29 27.15L1016.24 27.15L1016.24 24.10M1022.31 30.18L1025.37 30.18L1025.37 33.23L1022.31 33.23L1022.31 30.18M1010.16 30.18L1013.18 30.18L1013.18 33.23L1010.16 33.23L1010.16 30.18M997.97 30.18L1001.03 30.18L1001.03 33.23L997.97 33.23L997.97 30.18M991.89 36.25L994.95 36.25L994.95 39.31L991.89 39.31L991.89 36.25M1004.05 36.25L1007.10 36.25L1007.10 39.31L1004.05 39.31L1004.05 36.25M1016.24 36.25L1019.29 36.25L1019.29 39.31L1016.24 39.31L1016.24 36.25M997.97 42.36L1001.03 42.36L1001.03 45.39L997.97 45.39L997.97 42.36M1010.16 42.36L1013.18 42.36L1013.18 45.39L1010.16 45.39L1010.16 42.36M1022.31 42.36L1025.37 42.36L1025.37 45.39L1022.31 45.39L1022.31 42.36M1016.24 48.44L1019.29 48.44L1019.29 51.49L1016.24 51.49L1016.24 48.44M1004.05 48.44L1007.10 48.44L1007.10 51.49L1004.05 51.49L1004.05 48.44M991.89 48.44L994.95 48.44L994.95 51.49L991.89 51.49L991.89 48.44M997.97 54.52L1001.03 54.52L1001.03 57.57L997.97 57.57L997.97 54.52M1010.16 54.52L1013.18 54.52L1013.18 57.57L1010.16 57.57L1010.16 54.52M1022.31 54.52L1025.37 54.52L1025.37 57.57L1022.31 57.57L1022.31 54.52ZM1060.79 30.10L1024.27 30.10L1024.27-0.24L1060.79-0.24L1060.79 30.10ZM1059.69 60.42L1059.69-0.24L1096.22-0.24L1096.22 60.42L1059.69 60.42ZM1131.64 30.10L1095.12 30.10L1095.12-0.24L1131.64-0.24L1131.64 30.10Z"/></g><g transform="translate(0, 60.595703125)"><path d="M0-0.24L3.05-0.24L3.05 2.81L0 2.81L0-0.24M12.16-0.24L15.21-0.24L15.21 2.81L12.16 2.81L12.16-0.24M24.34-0.24L27.39-0.24L27.39 2.81L24.34 2.81L24.34-0.24M6.08 5.83L9.13 5.83L9.13 8.89L6.08 8.89L6.08 5.83M18.26 5.83L21.29 5.83L21.29 8.89L18.26 8.89L18.26 5.83M30.42 5.83L33.47 5.83L33.47 8.89L30.42 8.89L30.42 5.83M24.34 11.91L27.39 11.91L27.39 14.97L24.34 14.97L24.34 11.91M12.16 11.91L15.21 11.91L15.21 14.97L12.16 14.97L12.16 11.91M0 11.91L3.05 11.91L3.05 14.97L0 14.97L0 11.91M30.42 18.02L33.47 18.02L33.47 21.04L30.42 21.04L30.42 18.02M18.26 18.02L21.29 18.02L21.29 21.04L18.26 21.04L18.26 18.02M6.08 18.02L9.13 18.02L9.13 21.04L6.08 21.04L6.08 18.02M0 24.10L3.05 24.10L3.05 27.15L0 27.15L0 24.10M12.16 24.10L15.21 24.10L15.21 27.15L12.16 27.15L12.16 24.10M24.34 24.10L27.39 24.10L27.39 27.15L24.34 27.15L24.34 24.10M30.42 30.18L33.47 30.18L33.47 33.23L30.42 33.23L30.42 30.18M18.26 30.18L21.29 30.18L21.29 33.23L18.26 33.23L18.26 30.18M6.08 30.18L9.13 30.18L9.13 33.23L6.08 33.23L6.08 30.18M0 36.25L3.05 36.25L3.05 39.31L0 39.31L0 36.25M12.16 36.25L15.21 36.25L15.21 39.31L12.16 39.31L12.16 36.25M24.34 36.25L27.39 36.25L27.39 39.31L24.34 39.31L24.34 36.25M6.08 42.36L9.13 42.36L9.13 45.39L6.08 45.39L6.08 42.36M18.26 42.36L21.29 42.36L21.29 45.39L18.26 45.39L18.26 42.36M30.42 42.36L33.47 42.36L33.47 45.39L30.42 45.39L30.42 42.36M24.34 48.44L27.39 48.44L27.39 51.49L24.34 51.49L24.34 48.44M12.16 48.44L15.21 48.44L15.21 51.49L12.16 51.49L12.16 48.44M0 48.44L3.05 48.44L3.05 51.49L0 51.49L0 48.44M6.08 54.52L9.13 54.52L9.13 57.57L6.08 57.57L6.08 54.52M18.26 54.52L21.29 54.52L21.29 57.57L18.26 57.57L18.26 54.52M30.42 54.52L33.47 54.52L33.47 57.57L30.42 57.57L30.42 54.52ZM32.37 60.42L32.37-0.24L68.90-0.24L68.90 60.42L32.37 60.42ZM70.85-0.24L73.90-0.24L73.90 2.81L70.85 2.81L70.85-0.24M83.01-0.24L86.06-0.24L86.06 2.81L83.01 2.81L83.01-0.24M95.19-0.24L98.24-0.24L98.24 2.81L95.19 2.81L95.19-0.24M76.93 5.83L79.98 5.83L79.98 8.89L76.93 8.89L76.93 5.83M89.11 5.83L92.14 5.83L92.14 8.89L89.11 8.89L89.11 5.83M101.27 5.83L104.32 5.83L104.32 8.89L101.27 8.89L101.27 5.83M95.19 11.91L98.24 11.91L98.24 14.97L95.19 14.97L95.19 11.91M83.01 11.91L86.06 11.91L86.06 14.97L83.01 14.97L83.01 11.91M70.85 11.91L73.90 11.91L73.90 14.97L70.85 14.97L70.85 11.91M101.27 18.02L104.32 18.02L104.32 21.04L101.27 21.04L101.27 18.02M89.11 18.02L92.14 18.02L92.14 21.04L89.11 21.04L89.11 18.02M76.93 18.02L79.98 18.02L79.98 21.04L76.93 21.04L76.93 18.02M70.85 24.10L73.90 24.10L73.90 27.15L70.85 27.15L70.85 24.10M83.01 24.10L86.06 24.10L86.06 27.15L83.01 27.15L83.01 24.10M95.19 24.10L98.24 24.10L98.24 27.15L95.19 27.15L95.19 24.10M101.27 30.18L104.32 30.18L104.32 33.23L101.27 33.23L101.27 30.18M89.11 30.18L92.14 30.18L92.14 33.23L89.11 33.23L89.11 30.18M76.93 30.18L79.98 30.18L79.98 33.23L76.93 33.23L76.93 30.18M70.85 36.25L73.90 36.25L73.90 39.31L70.85 39.31L70.85 36.25M83.01 36.25L86.06 36.25L86.06 39.31L83.01 39.31L83.01 36.25M95.19 36.25L98.24 36.25L98.24 39.31L95.19 39.31L95.19 36.25M76.93 42.36L79.98 42.36L79.98 45.39L76.93 45.39L76.93 42.36M89.11 42.36L92.14 42.36L92.14 45.39L89.11 45.39L89.11 42.36M101.27 42.36L104.32 42.36L104.32 45.39L101.27 45.39L101.27 42.36M95.19 48.44L98.24 48.44L98.24 51.49L95.19 51.49L95.19 48.44M83.01 48.44L86.06 48.44L86.06 51.49L83.01 51.49L83.01 48.44M70.85 48.44L73.90 48.44L73.90 51.49L70.85 51.49L70.85 48.44M76.93 54.52L79.98 54.52L79.98 57.57L76.93 57.57L76.93 54.52M89.11 54.52L92.14 54.52L92.14 57.57L89.11 57.57L89.11 54.52M101.27 54.52L104.32 54.52L104.32 57.57L101.27 57.57L101.27 54.52ZM103.22 60.42L103.22-0.24L139.75-0.24L139.75 60.42L103.22 60.42ZM141.70-0.24L144.75-0.24L144.75 2.81L141.70 2.81L141.70-0.24M153.86-0.24L156.91-0.24L156.91 2.81L153.86 2.81L153.86-0.24M166.04-0.24L169.09-0.24L169.09 2.81L166.04 2.81L166.04-0.24M147.78 5.83L150.83 5.83L150.83 8.89L147.78 8.89L147.78 5.83M159.96 5.83L162.99 5.83L162.99 8.89L159.96 8.89L159.96 5.83M172.12 5.83L175.17 5.83L175.17 8.89L172.12 8.89L172.12 5.83M166.04 11.91L169.09 11.91L169.09 14.97L166.04 14.97L166.04 11.91M153.86 11.91L156.91 11.91L156.91 14.97L153.86 14.97L153.86 11.91M141.70 11.91L144.75 11.91L144.75 14.97L141.70 14.97L141.70 11.91M172.12 18.02L175.17 18.02L175.17 21.04L172.12 21.04L172.12 18.02M159.96 18.02L162.99 18.02L162.99 21.04L159.96 21.04L159.96 18.02M147.78 18.02L150.83 18.02L150.83 21.04L147.78 21.04L147.78 18.02M141.70 24.10L144.75 24.10L144.75 27.15L141.70 27.15L141.70 24.10M153.86 24.10L156.91 24.10L156.91 27.15L153.86 27.15L153.86 24.10M166.04 24.10L169.09 24.10L169.09 27.15L166.04 27.15L166.04 24.10M172.12 30.18L175.17 30.18L175.17 33.23L172.12 33.23L172.12 30.18M159.96 30.18L162.99 30.18L162.99 33.23L159.96 33.23L159.96 30.18M147.78 30.18L150.83 30.18L150.83 33.23L147.78 33.23L147.78 30.18M141.70 36.25L144.75 36.25L144.75 39.31L141.70 39.31L141.70 36.25M153.86 36.25L156.91 36.25L156.91 39.31L153.86 39.31L153.86 36.25M166.04 36.25L169.09 36.25L169.09 39.31L166.04 39.31L166.04 36.25M147.78 42.36L150.83 42.36L150.83 45.39L147.78 45.39L147.78 42.36M159.96 42.36L162.99 42.36L162.99 45.39L159.96 45.39L159.96 42.36M172.12 42.36L175.17 42.36L175.17 45.39L172.12 45.39L172.12 42.36M166.04 48.44L169.09 48.44L169.09 51.49L166.04 51.49L166.04 48.44M153.86 48.44L156.91 48.44L156.91 51.49L153.86 51.49L153.86 48.44M141.70 48.44L144.75 48.44L144.75 51.49L141.70 51.49L141.70 48.44M147.78 54.52L150.83 54.52L150.83 57.57L147.78 57.57L147.78 54.52M159.96 54.52L162.99 54.52L162.99 57.57L159.96 57.57L159.96 54.52M172.12 54.52L175.17 54.52L175.17 57.57L172.12 57.57L172.12 54.52ZM174.07 60.42L174.07-0.24L210.60-0.24L210.60 60.42L174.07 60.42ZM212.55-0.24L215.60-0.24L215.60 2.81L212.55 2.81L212.55-0.24M224.71-0.24L227.76-0.24L227.76 2.81L224.71 2.81L224.71-0.24M236.89-0.24L239.94-0.24L239.94 2.81L236.89 2.81L236.89-0.24M218.63 5.83L221.68 5.83L221.68 8.89L218.63 8.89L218.63 5.83M230.81 5.83L233.84 5.83L233.84 8.89L230.81 8.89L230.81 5.83M242.97 5.83L246.02 5.83L246.02 8.89L242.97 8.89L242.97 5.83M236.89 11.91L239.94 11.91L239.94 14.97L236.89 14.97L236.89 11.91M224.71 11.91L227.76 11.91L227.76 14.97L224.71 14.97L224.71 11.91M212.55 11.91L215.60 11.91L215.60 14.97L212.55 14.97L212.55 11.91M242.97 18.02L246.02 18.02L246.02 21.04L242.97 21.04L242.97 18.02M230.81 18.02L233.84 18.02L233.84 21.04L230.81 21.04L230.81 18.02M218.63 18.02L221.68 18.02L221.68 21.04L218.63 21.04L218.63 18.02M212.55 24.10L215.60 24.10L215.60 27.15L212.55 27.15L212.55 24.10M224.71 24.10L227.76 24.10L227.76 27.15L224.71 27.15L224.71 24.10M236.89 24.10L239.94 24.10L239.94 27.15L236.89 27.15L236.89 24.10M242.97 30.18L246.02 30.18L246.02 33.23L242.97 33.23L242.97 30.18M230.81 30.18L233.84 30.18L233.84 33.23L230.81 33.23L230.81 30.18M218.63 30.18L221.68 30.18L221.68 33.23L218.63 33.23L218.63 30.18M212.55 36.25L215.60 36.25L215.60 39.31L212.55 39.31L212.55 36.25M224.71 36.25L227.76 36.25L227.76 39.31L224.71 39.31L224.71 36.25M236.89 36.25L239.94 36.25L239.94 39.31L236.89 39.31L236.89 36.25M218.63 42.36L221.68 42.36L221.68 45.39L218.63 45.39L218.63 42.36M230.81 42.36L233.84 42.36L233.84 45.39L230.81 45.39L230.81 42.36M242.97 42.36L246.02 42.36L246.02 45.39L242.97 45.39L242.97 42.36M236.89 48.44L239.94 48.44L239.94 51.49L236.89 51.49L236.89 48.44M224.71 48.44L227.76 48.44L227.76 51.49L224.71 51.49L224.71 48.44M212.55 48.44L215.60 48.44L215.60 51.49L212.55 51.49L212.55 48.44M218.63 54.52L221.68 54.52L221.68 57.57L218.63 57.57L218.63 54.52M230.81 54.52L233.84 54.52L233.84 57.57L230.81 57.57L230.81 54.52M242.97 54.52L246.02 54.52L246.02 57.57L242.97 57.57L242.97 54.52ZM244.92 60.42L244.92-0.24L281.45-0.24L281.45 60.42L244.92 60.42ZM283.40-0.24L286.45-0.24L286.45 2.81L283.40 2.81L283.40-0.24M295.56-0.24L298.61-0.24L298.61 2.81L295.56 2.81L295.56-0.24M307.74-0.24L310.79-0.24L310.79 2.81L307.74 2.81L307.74-0.24M289.48 5.83L292.53 5.83L292.53 8.89L289.48 8.89L289.48 5.83M301.66 5.83L304.69 5.83L304.69 8.89L301.66 8.89L301.66 5.83M313.82 5.83L316.87 5.83L316.87 8.89L313.82 8.89L313.82 5.83M307.74 11.91L310.79 11.91L310.79 14.97L307.74 14.97L307.74 11.91M295.56 11.91L298.61 11.91L298.61 14.97L295.56 14.97L295.56 11.91M283.40 11.91L286.45 11.91L286.45 14.97L283.40 14.97L283.40 11.91M313.82 18.02L316.87 18.02L316.87 21.04L313.82 21.04L313.82 18.02M301.66 18.02L304.69 18.02L304.69 21.04L301.66 21.04L301.66 18.02M289.48 18.02L292.53 18.02L292.53 21.04L289.48 21.04L289.48 18.02M283.40 24.10L286.45 24.10L286.45 27.15L283.40 27.15L283.40 24.10M295.56 24.10L298.61 24.10L298.61 27.15L295.56 27.15L295.56 24.10M307.74 24.10L310.79 24.10L310.79 27.15L307.74 27.15L307.74 24.10M313.82 30.18L316.87 30.18L316.87 33.23L313.82 33.23L313.82 30.18M301.66 30.18L304.69 30.18L304.69 33.23L301.66 33.23L301.66 30.18M289.48 30.18L292.53 30.18L292.53 33.23L289.48 33.23L289.48 30.18M283.40 36.25L286.45 36.25L286.45 39.31L283.40 39.31L283.40 36.25M295.56 36.25L298.61 36.25L298.61 39.31L295.56 39.31L295.56 36.25M307.74 36.25L310.79 36.25L310.79 39.31L307.74 39.31L307.74 36.25M289.48 42.36L292.53 42.36L292.53 45.39L289.48 45.39L289.48 42.36M301.66 42.36L304.69 42.36L304.69 45.39L301.66 45.39L301.66 42.36M313.82 42.36L316.87 42.36L316.87 45.39L313.82 45.39L313.82 42.36M307.74 48.44L310.79 48.44L310.79 51.49L307.74 51.49L307.74 48.44M295.56 48.44L298.61 48.44L298.61 51.49L295.56 51.49L295.56 48.44M283.40 48.44L286.45 48.44L286.45 51.49L283.40 51.49L283.40 48.44M289.48 54.52L292.53 54.52L292.53 57.57L289.48 57.57L289.48 54.52M301.66 54.52L304.69 54.52L304.69 57.57L301.66 57.57L301.66 54.52M313.82 54.52L316.87 54.52L316.87 57.57L313.82 57.57L313.82 54.52ZM315.77 60.42L315.77-0.24L352.29-0.24L352.29 60.42L315.77 60.42ZM354.25-0.24L357.30-0.24L357.30 2.81L354.25 2.81L354.25-0.24M366.41-0.24L369.46-0.24L369.46 2.81L366.41 2.81L366.41-0.24M378.59-0.24L381.64-0.24L381.64 2.81L378.59 2.81L378.59-0.24M360.33 5.83L363.38 5.83L363.38 8.89L360.33 8.89L360.33 5.83M372.51 5.83L375.54 5.83L375.54 8.89L372.51 8.89L372.51 5.83M384.67 5.83L387.72 5.83L387.72 8.89L384.67 8.89L384.67 5.83M378.59 11.91L381.64 11.91L381.64 14.97L378.59 14.97L378.59 11.91M366.41 11.91L369.46 11.91L369.46 14.97L366.41 14.97L366.41 11.91M354.25 11.91L357.30 11.91L357.30 14.97L354.25 14.97L354.25 11.91M384.67 18.02L387.72 18.02L387.72 21.04L384.67 21.04L384.67 18.02M372.51 18.02L375.54 18.02L375.54 21.04L372.51 21.04L372.51 18.02M360.33 18.02L363.38 18.02L363.38 21.04L360.33 21.04L360.33 18.02M354.25 24.10L357.30 24.10L357.30 27.15L354.25 27.15L354.25 24.10M366.41 24.10L369.46 24.10L369.46 27.15L366.41 27.15L366.41 24.10M378.59 24.10L381.64 24.10L381.64 27.15L378.59 27.15L378.59 24.10M384.67 30.18L387.72 30.18L387.72 33.23L384.67 33.23L384.67 30.18M372.51 30.18L375.54 30.18L375.54 33.23L372.51 33.23L372.51 30.18M360.33 30.18L363.38 30.18L363.38 33.23L360.33 33.23L360.33 30.18M354.25 36.25L357.30 36.25L357.30 39.31L354.25 39.31L354.25 36.25M366.41 36.25L369.46 36.25L369.46 39.31L366.41 39.31L366.41 36.25M378.59 36.25L381.64 36.25L381.64 39.31L378.59 39.31L378.59 36.25M360.33 42.36L363.38 42.36L363.38 45.39L360.33 45.39L360.33 42.36M372.51 42.36L375.54 42.36L375.54 45.39L372.51 45.39L372.51 42.36M384.67 42.36L387.72 42.36L387.72 45.39L384.67 45.39L384.67 42.36M378.59 48.44L381.64 48.44L381.64 51.49L378.59 51.49L378.59 48.44M366.41 48.44L369.46 48.44L369.46 51.49L366.41 51.49L366.41 48.44M354.25 48.44L357.30 48.44L357.30 51.49L354.25 51.49L354.25 48.44M360.33 54.52L363.38 54.52L363.38 57.57L360.33 57.57L360.33 54.52M372.51 54.52L375.54 54.52L375.54 57.57L372.51 57.57L372.51 54.52M384.67 54.52L387.72 54.52L387.72 57.57L384.67 57.57L384.67 54.52ZM386.62 60.42L386.62-0.24L423.14-0.24L423.14 60.42L386.62 60.42ZM425.10-0.24L428.15-0.24L428.15 2.81L425.10 2.81L425.10-0.24M437.26-0.24L440.31-0.24L440.31 2.81L437.26 2.81L437.26-0.24M449.44-0.24L452.49-0.24L452.49 2.81L449.44 2.81L449.44-0.24M431.18 5.83L434.23 5.83L434.23 8.89L431.18 8.89L431.18 5.83M443.36 5.83L446.39 5.83L446.39 8.89L443.36 8.89L443.36 5.83M455.52 5.83L458.57 5.83L458.57 8.89L455.52 8.89L455.52 5.83M449.44 11.91L452.49 11.91L452.49 14.97L449.44 14.97L449.44 11.91M437.26 11.91L440.31 11.91L440.31 14.97L437.26 14.97L437.26 11.91M425.10 11.91L428.15 11.91L428.15 14.97L425.10 14.97L425.10 11.91M455.52 18.02L458.57 18.02L458.57 21.04L455.52 21.04L455.52 18.02M443.36 18.02L446.39 18.02L446.39 21.04L443.36 21.04L443.36 18.02M431.18 18.02L434.23 18.02L434.23 21.04L431.18 21.04L431.18 18.02M425.10 24.10L428.15 24.10L428.15 27.15L425.10 27.15L425.10 24.10M437.26 24.10L440.31 24.10L440.31 27.15L437.26 27.15L437.26 24.10M449.44 24.10L452.49 24.10L452.49 27.15L449.44 27.15L449.44 24.10M455.52 30.18L458.57 30.18L458.57 33.23L455.52 33.23L455.52 30.18M443.36 30.18L446.39 30.18L446.39 33.23L443.36 33.23L443.36 30.18M431.18 30.18L434.23 30.18L434.23 33.23L431.18 33.23L431.18 30.18M425.10 36.25L428.15 36.25L428.15 39.31L425.10 39.31L425.10 36.25M437.26 36.25L440.31 36.25L440.31 39.31L437.26 39.31L437.26 36.25M449.44 36.25L452.49 36.25L452.49 39.31L449.44 39.31L449.44 36.25M431.18 42.36L434.23 42.36L434.23 45.39L431.18 45.39L431.18 42.36M443.36 42.36L446.39 42.36L446.39 45.39L443.36 45.39L443.36 42.36M455.52 42.36L458.57 42.36L458.57 45.39L455.52 45.39L455.52 42.36M449.44 48.44L452.49 48.44L452.49 51.49L449.44 51.49L449.44 48.44M437.26 48.44L440.31 48.44L440.31 51.49L437.26 51.49L437.26 48.44M425.10 48.44L428.15 48.44L428.15 51.49L425.10 51.49L425.10 48.44M431.18 54.52L434.23 54.52L434.23 57.57L431.18 57.57L431.18 54.52M443.36 54.52L446.39 54.52L446.39 57.57L443.36 57.57L443.36 54.52M455.52 54.52L458.57 54.52L458.57 57.57L455.52 57.57L455.52 54.52ZM457.47 60.42L457.47-0.24L493.99-0.24L493.99 60.42L457.47 60.42ZM495.95-0.24L499.00-0.24L499.00 2.81L495.95 2.81L495.95-0.24M508.11-0.24L511.16-0.24L511.16 2.81L508.11 2.81L508.11-0.24M520.29-0.24L523.34-0.24L523.34 2.81L520.29 2.81L520.29-0.24M502.03 5.83L505.08 5.83L505.08 8.89L502.03 8.89L502.03 5.83M514.21 5.83L517.24 5.83L517.24 8.89L514.21 8.89L514.21 5.83M526.37 5.83L529.42 5.83L529.42 8.89L526.37 8.89L526.37 5.83M520.29 11.91L523.34 11.91L523.34 14.97L520.29 14.97L520.29 11.91M508.11 11.91L511.16 11.91L511.16 14.97L508.11 14.97L508.11 11.91M495.95 11.91L499.00 11.91L499.00 14.97L495.95 14.97L495.95 11.91M526.37 18.02L529.42 18.02L529.42 21.04L526.37 21.04L526.37 18.02M514.21 18.02L517.24 18.02L517.24 21.04L514.21 21.04L514.21 18.02M502.03 18.02L505.08 18.02L505.08 21.04L502.03 21.04L502.03 18.02M495.95 24.10L499.00 24.10L499.00 27.15L495.95 27.15L495.95 24.10M508.11 24.10L511.16 24.10L511.16 27.15L508.11 27.15L508.11 24.10M520.29 24.10L523.34 24.10L523.34 27.15L520.29 27.15L520.29 24.10M526.37 30.18L529.42 30.18L529.42 33.23L526.37 33.23L526.37 30.18M514.21 30.18L517.24 30.18L517.24 33.23L514.21 33.23L514.21 30.18M502.03 30.18L505.08 30.18L505.08 33.23L502.03 33.23L502.03 30.18M495.95 36.25L499.00 36.25L499.00 39.31L495.95 39.31L495.95 36.25M508.11 36.25L511.16 36.25L511.16 39.31L508.11 39.31L508.11 36.25M520.29 36.25L523.34 36.25L523.34 39.31L520.29 39.31L520.29 36.25M502.03 42.36L505.08 42.36L505.08 45.39L502.03 45.39L502.03 42.36M514.21 42.36L517.24 42.36L517.24 45.39L514.21 45.39L514.21 42.36M526.37 42.36L529.42 42.36L529.42 45.39L526.37 45.39L526.37 42.36M520.29 48.44L523.34 48.44L523.34 51.49L520.29 51.49L520.29 48.44M508.11 48.44L511.16 48.44L511.16 51.49L508.11 51.49L508.11 48.44M495.95 48.44L499.00 48.44L499.00 51.49L495.95 51.49L495.95 48.44M502.03 54.52L505.08 54.52L505.08 57.57L502.03 57.57L502.03 54.52M514.21 54.52L517.24 54.52L517.24 57.57L514.21 57.57L514.21 54.52M526.37 54.52L529.42 54.52L529.42 57.57L526.37 57.57L526.37 54.52ZM528.32 60.42L528.32-0.24L564.84-0.24L564.84 60.42L528.32 60.42ZM566.80-0.24L569.85-0.24L569.85 2.81L566.80 2.81L566.80-0.24M578.96-0.24L582.01-0.24L582.01 2.81L578.96 2.81L578.96-0.24M591.14-0.24L594.19-0.24L594.19 2.81L591.14 2.81L591.14-0.24M572.88 5.83L575.93 5.83L575.93 8.89L572.88 8.89L572.88 5.83M585.06 5.83L588.09 5.83L588.09 8.89L585.06 8.89L585.06 5.83M597.22 5.83L600.27 5.83L600.27 8.89L597.22 8.89L597.22 5.83M591.14 11.91L594.19 11.91L594.19 14.97L591.14 14.97L591.14 11.91M578.96 11.91L582.01 11.91L582.01 14.97L578.96 14.97L578.96 11.91M566.80 11.91L569.85 11.91L569.85 14.97L566.80 14.97L566.80 11.91M597.22 18.02L600.27 18.02L600.27 21.04L597.22 21.04L597.22 18.02M585.06 18.02L588.09 18.02L588.09 21.04L585.06 21.04L585.06 18.02M572.88 18.02L575.93 18.02L575.93 21.04L572.88 21.04L572.88 18.02M566.80 24.10L569.85 24.10L569.85 27.15L566.80 27.15L566.80 24.10M578.96 24.10L582.01 24.10L582.01 27.15L578.96 27.15L578.96 24.10M591.14 24.10L594.19 24.10L594.19 27.15L591.14 27.15L591.14 24.10M597.22 30.18L600.27 30.18L600.27 33.23L597.22 33.23L597.22 30.18M585.06 30.18L588.09 30.18L588.09 33.23L585.06 33.23L585.06 30.18M572.88 30.18L575.93 30.18L575.93 33.23L572.88 33.23L572.88 30.18M566.80 36.25L569.85 36.25L569.85 39.31L566.80 39.31L566.80 36.25M578.96 36.25L582.01 36.25L582.01 39.31L578.96 39.31L578.96 36.25M591.14 36.25L594.19 36.25L594.19 39.31L591.14 39.31L591.14 36.25M572.88 42.36L575.93 42.36L575.93 45.39L572.88 45.39L572.88 42.36M585.06 42.36L588.09 42.36L588.09 45.39L585.06 45.39L585.06 42.36M597.22 42.36L600.27 42.36L600.27 45.39L597.22 45.39L597.22 42.36M591.14 48.44L594.19 48.44L594.19 51.49L591.14 51.49L591.14 48.44M578.96 48.44L582.01 48.44L582.01 51.49L578.96 51.49L578.96 48.44M566.80 48.44L569.85 48.44L569.85 51.49L566.80 51.49L566.80 48.44M572.88 54.52L575.93 54.52L575.93 57.57L572.88 57.57L572.88 54.52M585.06 54.52L588.09 54.52L588.09 57.57L585.06 57.57L585.06 54.52M597.22 54.52L600.27 54.52L600.27 57.57L597.22 57.57L597.22 54.52ZM599.17 60.42L599.17-0.24L635.69-0.24L635.69 60.42L599.17 60.42ZM637.65-0.24L640.70-0.24L640.70 2.81L637.65 2.81L637.65-0.24M649.80-0.24L652.86-0.24L652.86 2.81L649.80 2.81L649.80-0.24M661.99-0.24L665.04-0.24L665.04 2.81L661.99 2.81L661.99-0.24M643.73 5.83L646.78 5.83L646.78 8.89L643.73 8.89L643.73 5.83M655.91 5.83L658.94 5.83L658.94 8.89L655.91 8.89L655.91 5.83M668.07 5.83L671.12 5.83L671.12 8.89L668.07 8.89L668.07 5.83M661.99 11.91L665.04 11.91L665.04 14.97L661.99 14.97L661.99 11.91M649.80 11.91L652.86 11.91L652.86 14.97L649.80 14.97L649.80 11.91M637.65 11.91L640.70 11.91L640.70 14.97L637.65 14.97L637.65 11.91M668.07 18.02L671.12 18.02L671.12 21.04L668.07 21.04L668.07 18.02M655.91 18.02L658.94 18.02L658.94 21.04L655.91 21.04L655.91 18.02M643.73 18.02L646.78 18.02L646.78 21.04L643.73 21.04L643.73 18.02M637.65 24.10L640.70 24.10L640.70 27.15L637.65 27.15L637.65 24.10M649.80 24.10L652.86 24.10L652.86 27.15L649.80 27.15L649.80 24.10M661.99 24.10L665.04 24.10L665.04 27.15L661.99 27.15L661.99 24.10M668.07 30.18L671.12 30.18L671.12 33.23L668.07 33.23L668.07 30.18M655.91 30.18L658.94 30.18L658.94 33.23L655.91 33.23L655.91 30.18M643.73 30.18L646.78 30.18L646.78 33.23L643.73 33.23L643.73 30.18M637.65 36.25L640.70 36.25L640.70 39.31L637.65 39.31L637.65 36.25M649.80 36.25L652.86 36.25L652.86 39.31L649.80 39.31L649.80 36.25M661.99 36.25L665.04 36.25L665.04 39.31L661.99 39.31L661.99 36.25M643.73 42.36L646.78 42.36L646.78 45.39L643.73 45.39L643.73 42.36M655.91 42.36L658.94 42.36L658.94 45.39L655.91 45.39L655.91 42.36M668.07 42.36L671.12 42.36L671.12 45.39L668.07 45.39L668.07 42.36M661.99 48.44L665.04 48.44L665.04 51.49L661.99 51.49L661.99 48.44M649.80 48.44L652.86 48.44L652.86 51.49L649.80 51.49L649.80 48.44M637.65 48.44L640.70 48.44L640.70 51.49L637.65 51.49L637.65 48.44M643.73 54.52L646.78 54.52L646.78 57.57L643.73 57.57L643.73 54.52M655.91 54.52L658.94 54.52L658.94 57.57L655.91 57.57L655.91 54.52M668.07 54.52L671.12 54.52L671.12 57.57L668.07 57.57L668.07 54.52ZM673.07-0.24L676.12-0.24L676.12 2.81L673.07 2.81L673.07-0.24M685.23-0.24L688.28-0.24L688.28 2.81L685.23 2.81L685.23-0.24M697.41-0.24L700.46-0.24L700.46 2.81L697.41 2.81L697.41-0.24M679.15 5.83L682.20 5.83L682.20 8.89L679.15 8.89L679.15 5.83M691.33 5.83L694.36 5.83L694.36 8.89L691.33 8.89L691.33 5.83M703.49 5.83L706.54 5.83L706.54 8.89L703.49 8.89L703.49 5.83M697.41 11.91L700.46 11.91L700.46 14.97L697.41 14.97L697.41 11.91M685.23 11.91L688.28 11.91L688.28 14.97L685.23 14.97L685.23 11.91M673.07 11.91L676.12 11.91L676.12 14.97L673.07 14.97L673.07 11.91M703.49 18.02L706.54 18.02L706.54 21.04L703.49 21.04L703.49 18.02M691.33 18.02L694.36 18.02L694.36 21.04L691.33 21.04L691.33 18.02M679.15 18.02L682.20 18.02L682.20 21.04L679.15 21.04L679.15 18.02M673.07 24.10L676.12 24.10L676.12 27.15L673.07 27.15L673.07 24.10M685.23 24.10L688.28 24.10L688.28 27.15L685.23 27.15L685.23 24.10M697.41 24.10L700.46 24.10L700.46 27.15L697.41 27.15L697.41 24.10M703.49 30.18L706.54 30.18L706.54 33.23L703.49 33.23L703.49 30.18M691.33 30.18L694.36 30.18L694.36 33.23L691.33 33.23L691.33 30.18M679.15 30.18L682.20 30.18L682.20 33.23L679.15 33.23L679.15 30.18M673.07 36.25L676.12 36.25L676.12 39.31L673.07 39.31L673.07 36.25M685.23 36.25L688.28 36.25L688.28 39.31L685.23 39.31L685.23 36.25M697.41 36.25L700.46 36.25L700.46 39.31L697.41 39.31L697.41 36.25M679.15 42.36L682.20 42.36L682.20 45.39L679.15 45.39L679.15 42.36M691.33 42.36L694.36 42.36L694.36 45.39L691.33 45.39L691.33 42.36M703.49 42.36L706.54 42.36L706.54 45.39L703.49 45.39L703.49 42.36M697.41 48.44L700.46 48.44L700.46 51.49L697.41 51.49L697.41 48.44M685.23 48.44L688.28 48.44L688.28 51.49L685.23 51.49L685.23 48.44M673.07 48.44L676.12 48.44L676.12 51.49L673.07 51.49L673.07 48.44M679.15 54.52L682.20 54.52L682.20 57.57L679.15 57.57L679.15 54.52M691.33 54.52L694.36 54.52L694.36 57.57L691.33 57.57L691.33 54.52M703.49 54.52L706.54 54.52L706.54 57.57L703.49 57.57L703.49 54.52ZM708.50-0.24L711.55-0.24L711.55 2.81L708.50 2.81L708.50-0.24M720.65-0.24L723.71-0.24L723.71 2.81L720.65 2.81L720.65-0.24M732.84-0.24L735.89-0.24L735.89 2.81L732.84 2.81L732.84-0.24M714.58 5.83L717.63 5.83L717.63 8.89L714.58 8.89L714.58 5.83M726.76 5.83L729.79 5.83L729.79 8.89L726.76 8.89L726.76 5.83M738.92 5.83L741.97 5.83L741.97 8.89L738.92 8.89L738.92 5.83M732.84 11.91L735.89 11.91L735.89 14.97L732.84 14.97L732.84 11.91M720.65 11.91L723.71 11.91L723.71 14.97L720.65 14.97L720.65 11.91M708.50 11.91L711.55 11.91L711.55 14.97L708.50 14.97L708.50 11.91M738.92 18.02L741.97 18.02L741.97 21.04L738.92 21.04L738.92 18.02M726.76 18.02L729.79 18.02L729.79 21.04L726.76 21.04L726.76 18.02M714.58 18.02L717.63 18.02L717.63 21.04L714.58 21.04L714.58 18.02M708.50 24.10L711.55 24.10L711.55 27.15L708.50 27.15L708.50 24.10M720.65 24.10L723.71 24.10L723.71 27.15L720.65 27.15L720.65 24.10M732.84 24.10L735.89 24.10L735.89 27.15L732.84 27.15L732.84 24.10M738.92 30.18L741.97 30.18L741.97 33.23L738.92 33.23L738.92 30.18M726.76 30.18L729.79 30.18L729.79 33.23L726.76 33.23L726.76 30.18M714.58 30.18L717.63 30.18L717.63 33.23L714.58 33.23L714.58 30.18M708.50 36.25L711.55 36.25L711.55 39.31L708.50 39.31L708.50 36.25M720.65 36.25L723.71 36.25L723.71 39.31L720.65 39.31L720.65 36.25M732.84 36.25L735.89 36.25L735.89 39.31L732.84 39.31L732.84 36.25M714.58 42.36L717.63 42.36L717.63 45.39L714.58 45.39L714.58 42.36M726.76 42.36L729.79 42.36L729.79 45.39L726.76 45.39L726.76 42.36M738.92 42.36L741.97 42.36L741.97 45.39L738.92 45.39L738.92 42.36M732.84 48.44L735.89 48.44L735.89 51.49L732.84 51.49L732.84 48.44M720.65 48.44L723.71 48.44L723.71 51.49L720.65 51.49L720.65 48.44M708.50 48.44L711.55 48.44L711.55 51.49L708.50 51.49L708.50 48.44M714.58 54.52L717.63 54.52L717.63 57.57L714.58 57.57L714.58 54.52M726.76 54.52L729.79 54.52L729.79 57.57L726.76 57.57L726.76 54.52M738.92 54.52L741.97 54.52L741.97 57.57L738.92 57.57L738.92 54.52ZM740.87 60.42L740.87-0.24L777.39-0.24L777.39 60.42L740.87 60.42ZM812.82 30.10L776.29 30.10L776.29-0.24L812.82-0.24L812.82 30.10ZM811.72 60.42L811.72-0.24L848.24-0.24L848.24 60.42L811.72 60.42ZM850.20-0.24L853.25-0.24L853.25 2.81L850.20 2.81L850.20-0.24M862.35-0.24L865.41-0.24L865.41 2.81L862.35 2.81L862.35-0.24M874.54-0.24L877.59-0.24L877.59 2.81L874.54 2.81L874.54-0.24M856.27 5.83L859.33 5.83L859.33 8.89L856.27 8.89L856.27 5.83M868.46 5.83L871.48 5.83L871.48 8.89L868.46 8.89L868.46 5.83M880.62 5.83L883.67 5.83L883.67 8.89L880.62 8.89L880.62 5.83M874.54 11.91L877.59 11.91L877.59 14.97L874.54 14.97L874.54 11.91M862.35 11.91L865.41 11.91L865.41 14.97L862.35 14.97L862.35 11.91M850.20 11.91L853.25 11.91L853.25 14.97L850.20 14.97L850.20 11.91M880.62 18.02L883.67 18.02L883.67 21.04L880.62 21.04L880.62 18.02M868.46 18.02L871.48 18.02L871.48 21.04L868.46 21.04L868.46 18.02M856.27 18.02L859.33 18.02L859.33 21.04L856.27 21.04L856.27 18.02M850.20 24.10L853.25 24.10L853.25 27.15L850.20 27.15L850.20 24.10M862.35 24.10L865.41 24.10L865.41 27.15L862.35 27.15L862.35 24.10M874.54 24.10L877.59 24.10L877.59 27.15L874.54 27.15L874.54 24.10M880.62 30.18L883.67 30.18L883.67 33.23L880.62 33.23L880.62 30.18M868.46 30.18L871.48 30.18L871.48 33.23L868.46 33.23L868.46 30.18M856.27 30.18L859.33 30.18L859.33 33.23L856.27 33.23L856.27 30.18M850.20 36.25L853.25 36.25L853.25 39.31L850.20 39.31L850.20 36.25M862.35 36.25L865.41 36.25L865.41 39.31L862.35 39.31L862.35 36.25M874.54 36.25L877.59 36.25L877.59 39.31L874.54 39.31L874.54 36.25M856.27 42.36L859.33 42.36L859.33 45.39L856.27 45.39L856.27 42.36M868.46 42.36L871.48 42.36L871.48 45.39L868.46 45.39L868.46 42.36M880.62 42.36L883.67 42.36L883.67 45.39L880.62 45.39L880.62 42.36M874.54 48.44L877.59 48.44L877.59 51.49L874.54 51.49L874.54 48.44M862.35 48.44L865.41 48.44L865.41 51.49L862.35 51.49L862.35 48.44M850.20 48.44L853.25 48.44L853.25 51.49L850.20 51.49L850.20 48.44M856.27 54.52L859.33 54.52L859.33 57.57L856.27 57.57L856.27 54.52M868.46 54.52L871.48 54.52L871.48 57.57L868.46 57.57L868.46 54.52M880.62 54.52L883.67 54.52L883.67 57.57L880.62 57.57L880.62 54.52ZM882.57 60.42L882.57-0.24L919.09-0.24L919.09 60.42L882.57 60.42ZM954.52 30.10L917.99 30.10L917.99-0.24L954.52-0.24L954.52 30.10ZM953.42 60.42L953.42-0.24L989.94-0.24L989.94 60.42L953.42 60.42ZM991.89-0.24L994.95-0.24L994.95 2.81L991.89 2.81L991.89-0.24M1004.05-0.24L1007.10-0.24L1007.10 2.81L1004.05 2.81L1004.05-0.24M1016.24-0.24L1019.29-0.24L1019.29 2.81L1016.24 2.81L1016.24-0.24M997.97 5.83L1001.03 5.83L1001.03 8.89L997.97 8.89L997.97 5.83M1010.16 5.83L1013.18 5.83L1013.18 8.89L1010.16 8.89L1010.16 5.83M1022.31 5.83L1025.37 5.83L1025.37 8.89L1022.31 8.89L1022.31 5.83M1016.24 11.91L1019.29 11.91L1019.29 14.97L1016.24 14.97L1016.24 11.91M1004.05 11.91L1007.10 11.91L1007.10 14.97L1004.05 14.97L1004.05 11.91M991.89 11.91L994.95 11.91L994.95 14.97L991.89 14.97L991.89 11.91M1022.31 18.02L1025.37 18.02L1025.37 21.04L1022.31 21.04L1022.31 18.02M1010.16 18.02L1013.18 18.02L1013.18 21.04L1010.16 21.04L1010.16 18.02M997.97 18.02L1001.03 18.02L1001.03 21.04L997.97 21.04L997.97 18.02M991.89 24.10L994.95 24.10L994.95 27.15L991.89 27.15L991.89 24.10M1004.05 24.10L1007.10 24.10L1007.10 27.15L1004.05 27.15L1004.05 24.10M1016.24 24.10L1019.29 24.10L1019.29 27.15L1016.24 27.15L1016.24 24.10M1022.31 30.18L1025.37 30.18L1025.37 33.23L1022.31 33.23L1022.31 30.18M1010.16 30.18L1013.18 30.18L1013.18 33.23L1010.16 33.23L1010.16 30.18M997.97 30.18L1001.03 30.18L1001.03 33.23L997.97 33.23L997.97 30.18M991.89 36.25L994.95 36.25L994.95 39.31L991.89 39.31L991.89 36.25M1004.05 36.25L1007.10 36.25L1007.10 39.31L1004.05 39.31L1004.05 36.25M1016.24 36.25L1019.29 36.25L1019.29 39.31L1016.24 39.31L1016.24 36.25M997.97 42.36L1001.03 42.36L1001.03 45.39L997.97 45.39L997.97 42.36M1010.16 42.36L1013.18 42.36L1013.18 45.39L1010.16 45.39L1010.16 42.36M1022.31 42.36L1025.37 42.36L1025.37 45.39L1022.31 45.39L1022.31 42.36M1016.24 48.44L1019.29 48.44L1019.29 51.49L1016.24 51.49L1016.24 48.44M1004.05 48.44L1007.10 48.44L1007.10 51.49L1004.05 51.49L1004.05 48.44M991.89 48.44L994.95 48.44L994.95 51.49L991.89 51.49L991.89 48.44M997.97 54.52L1001.03 54.52L1001.03 57.57L997.97 57.57L997.97 54.52M1010.16 54.52L1013.18 54.52L1013.18 57.57L1010.16 57.57L1010.16 54.52M1022.31 54.52L1025.37 54.52L1025.37 57.57L1022.31 57.57L1022.31 54.52ZM1027.32-0.24L1030.37-0.24L1030.37 2.81L1027.32 2.81L1027.32-0.24M1039.48-0.24L1042.53-0.24L1042.53 2.81L1039.48 2.81L1039.48-0.24M1051.66-0.24L1054.71-0.24L1054.71 2.81L1051.66 2.81L1051.66-0.24M1033.40 5.83L1036.45 5.83L1036.45 8.89L1033.40 8.89L1033.40 5.83M1045.58 5.83L1048.61 5.83L1048.61 8.89L1045.58 8.89L1045.58 5.83M1057.74 5.83L1060.79 5.83L1060.79 8.89L1057.74 8.89L1057.74 5.83M1051.66 11.91L1054.71 11.91L1054.71 14.97L1051.66 14.97L1051.66 11.91M1039.48 11.91L1042.53 11.91L1042.53 14.97L1039.48 14.97L1039.48 11.91M1027.32 11.91L1030.37 11.91L1030.37 14.97L1027.32 14.97L1027.32 11.91M1057.74 18.02L1060.79 18.02L1060.79 21.04L1057.74 21.04L1057.74 18.02M1045.58 18.02L1048.61 18.02L1048.61 21.04L1045.58 21.04L1045.58 18.02M1033.40 18.02L1036.45 18.02L1036.45 21.04L1033.40 21.04L1033.40 18.02M1027.32 24.10L1030.37 24.10L1030.37 27.15L1027.32 27.15L1027.32 24.10M1039.48 24.10L1042.53 24.10L1042.53 27.15L1039.48 27.15L1039.48 24.10M1051.66 24.10L1054.71 24.10L1054.71 27.15L1051.66 27.15L1051.66 24.10M1057.74 30.18L1060.79 30.18L1060.79 33.23L1057.74 33.23L1057.74 30.18M1045.58 30.18L1048.61 30.18L1048.61 33.23L1045.58 33.23L1045.58 30.18M1033.40 30.18L1036.45 30.18L1036.45 33.23L1033.40 33.23L1033.40 30.18M1027.32 36.25L1030.37 36.25L1030.37 39.31L1027.32 39.31L1027.32 36.25M1039.48 36.25L1042.53 36.25L1042.53 39.31L1039.48 39.31L1039.48 36.25M1051.66 36.25L1054.71 36.25L1054.71 39.31L1051.66 39.31L1051.66 36.25M1033.40 42.36L1036.45 42.36L1036.45 45.39L1033.40 45.39L1033.40 42.36M1045.58 42.36L1048.61 42.36L1048.61 45.39L1045.58 45.39L1045.58 42.36M1057.74 42.36L1060.79 42.36L1060.79 45.39L1057.74 45.39L1057.74 42.36M1051.66 48.44L1054.71 48.44L1054.71 51.49L1051.66 51.49L1051.66 48.44M1039.48 48.44L1042.53 48.44L1042.53 51.49L1039.48 51.49L1039.48 48.44M1027.32 48.44L1030.37 48.44L1030.37 51.49L1027.32 51.49L1027.32 48.44M1033.40 54.52L1036.45 54.52L1036.45 57.57L1033.40 57.57L1033.40 54.52M1045.58 54.52L1048.61 54.52L1048.61 57.57L1045.58 57.57L1045.58 54.52M1057.74 54.52L1060.79 54.52L1060.79 57.57L1057.74 57.57L1057.74 54.52ZM1059.69 60.42L1059.69-0.24L1096.22-0.24L1096.22 60.42L1059.69 60.42ZM1098.17-0.24L1101.22-0.24L1101.22 2.81L1098.17 2.81L1098.17-0.24M1110.33-0.24L1113.38-0.24L1113.38 2.81L1110.33 2.81L1110.33-0.24M1122.51-0.24L1125.56-0.24L1125.56 2.81L1122.51 2.81L1122.51-0.24M1104.25 5.83L1107.30 5.83L1107.30 8.89L1104.25 8.89L1104.25 5.83M1116.43 5.83L1119.46 5.83L1119.46 8.89L1116.43 8.89L1116.43 5.83M1128.59 5.83L1131.64 5.83L1131.64 8.89L1128.59 8.89L1128.59 5.83M1122.51 11.91L1125.56 11.91L1125.56 14.97L1122.51 14.97L1122.51 11.91M1110.33 11.91L1113.38 11.91L1113.38 14.97L1110.33 14.97L1110.33 11.91M1098.17 11.91L1101.22 11.91L1101.22 14.97L1098.17 14.97L1098.17 11.91M1128.59 18.02L1131.64 18.02L1131.64 21.04L1128.59 21.04L1128.59 18.02M1116.43 18.02L1119.46 18.02L1119.46 21.04L1116.43 21.04L1116.43 18.02M1104.25 18.02L1107.30 18.02L1107.30 21.04L1104.25 21.04L1104.25 18.02M1098.17 24.10L1101.22 24.10L1101.22 27.15L1098.17 27.15L1098.17 24.10M1110.33 24.10L1113.38 24.10L1113.38 27.15L1110.33 27.15L1110.33 24.10M1122.51 24.10L1125.56 24.10L1125.56 27.15L1122.51 27.15L1122.51 24.10M1128.59 30.18L1131.64 30.18L1131.64 33.23L1128.59 33.23L1128.59 30.18M1116.43 30.18L1119.46 30.18L1119.46 33.23L1116.43 33.23L1116.43 30.18M1104.25 30.18L1107.30 30.18L1107.30 33.23L1104.25 33.23L1104.25 30.18M1098.17 36.25L1101.22 36.25L1101.22 39.31L1098.17 39.31L1098.17 36.25M1110.33 36.25L1113.38 36.25L1113.38 39.31L1110.33 39.31L1110.33 36.25M1122.51 36.25L1125.56 36.25L1125.56 39.31L1122.51 39.31L1122.51 36.25M1104.25 42.36L1107.30 42.36L1107.30 45.39L1104.25 45.39L1104.25 42.36M1116.43 42.36L1119.46 42.36L1119.46 45.39L1116.43 45.39L1116.43 42.36M1128.59 42.36L1131.64 42.36L1131.64 45.39L1128.59 45.39L1128.59 42.36M1122.51 48.44L1125.56 48.44L1125.56 51.49L1122.51 51.49L1122.51 48.44M1110.33 48.44L1113.38 48.44L1113.38 51.49L1110.33 51.49L1110.33 48.44M1098.17 48.44L1101.22 48.44L1101.22 51.49L1098.17 51.49L1098.17 48.44M1104.25 54.52L1107.30 54.52L1107.30 57.57L1104.25 57.57L1104.25 54.52M1116.43 54.52L1119.46 54.52L1119.46 57.57L1116.43 57.57L1116.43 54.52M1128.59 54.52L1131.64 54.52L1131.64 57.57L1128.59 57.57L1128.59 54.52Z"/></g><g transform="translate(0, 121.19140625)"><path d="M0-0.24L3.05-0.24L3.05 2.81L0 2.81L0-0.24M12.16-0.24L15.21-0.24L15.21 2.81L12.16 2.81L12.16-0.24M24.34-0.24L27.39-0.24L27.39 2.81L24.34 2.81L24.34-0.24M6.08 5.83L9.13 5.83L9.13 8.89L6.08 8.89L6.08 5.83M18.26 5.83L21.29 5.83L21.29 8.89L18.26 8.89L18.26 5.83M30.42 5.83L33.47 5.83L33.47 8.89L30.42 8.89L30.42 5.83M24.34 11.91L27.39 11.91L27.39 14.97L24.34 14.97L24.34 11.91M12.16 11.91L15.21 11.91L15.21 14.97L12.16 14.97L12.16 11.91M0 11.91L3.05 11.91L3.05 14.97L0 14.97L0 11.91M30.42 18.02L33.47 18.02L33.47 21.04L30.42 21.04L30.42 18.02M18.26 18.02L21.29 18.02L21.29 21.04L18.26 21.04L18.26 18.02M6.08 18.02L9.13 18.02L9.13 21.04L6.08 21.04L6.08 18.02M0 24.10L3.05 24.10L3.05 27.15L0 27.15L0 24.10M12.16 24.10L15.21 24.10L15.21 27.15L12.16 27.15L12.16 24.10M24.34 24.10L27.39 24.10L27.39 27.15L24.34 27.15L24.34 24.10M30.42 30.18L33.47 30.18L33.47 33.23L30.42 33.23L30.42 30.18M18.26 30.18L21.29 30.18L21.29 33.23L18.26 33.23L18.26 30.18M6.08 30.18L9.13 30.18L9.13 33.23L6.08 33.23L6.08 30.18M0 36.25L3.05 36.25L3.05 39.31L0 39.31L0 36.25M12.16 36.25L15.21 36.25L15.21 39.31L12.16 39.31L12.16 36.25M24.34 36.25L27.39 36.25L27.39 39.31L24.34 39.31L24.34 36.25M6.08 42.36L9.13 42.36L9.13 45.39L6.08 45.39L6.08 42.36M18.26 42.36L21.29 42.36L21.29 45.39L18.26 45.39L18.26 42.36M30.42 42.36L33.47 42.36L33.47 45.39L30.42 45.39L30.42 42.36M24.34 48.44L27.39 48.44L27.39 51.49L24.34 51.49L24.34 48.44M12.16 48.44L15.21 48.44L15.21 51.49L12.16 51.49L12.16 48.44M0 48.44L3.05 48.44L3.05 51.49L0 51.49L0 48.44M6.08 54.52L9.13 54.52L9.13 57.57L6.08 57.57L6.08 54.52M18.26 54.52L21.29 54.52L21.29 57.57L18.26 57.57L18.26 54.52M30.42 54.52L33.47 54.52L33.47 57.57L30.42 57.57L30.42 54.52ZM68.90 30.10L32.37 30.10L32.37-0.24L68.90-0.24L68.90 30.10ZM104.32 30.10L67.80 30.10L67.80-0.24L104.32-0.24L104.32 30.10ZM139.75 30.10L103.22 30.10L103.22-0.24L139.75-0.24L139.75 30.10ZM141.70-0.24L144.75-0.24L144.75 2.81L141.70 2.81L141.70-0.24M153.86-0.24L156.91-0.24L156.91 2.81L153.86 2.81L153.86-0.24M166.04-0.24L169.09-0.24L169.09 2.81L166.04 2.81L166.04-0.24M147.78 5.83L150.83 5.83L150.83 8.89L147.78 8.89L147.78 5.83M159.96 5.83L162.99 5.83L162.99 8.89L159.96 8.89L159.96 5.83M172.12 5.83L175.17 5.83L175.17 8.89L172.12 8.89L172.12 5.83M166.04 11.91L169.09 11.91L169.09 14.97L166.04 14.97L166.04 11.91M153.86 11.91L156.91 11.91L156.91 14.97L153.86 14.97L153.86 11.91M141.70 11.91L144.75 11.91L144.75 14.97L141.70 14.97L141.70 11.91M172.12 18.02L175.17 18.02L175.17 21.04L172.12 21.04L172.12 18.02M159.96 18.02L162.99 18.02L162.99 21.04L159.96 21.04L159.96 18.02M147.78 18.02L150.83 18.02L150.83 21.04L147.78 21.04L147.78 18.02M141.70 24.10L144.75 24.10L144.75 27.15L141.70 27.15L141.70 24.10M153.86 24.10L156.91 24.10L156.91 27.15L153.86 27.15L153.86 24.10M166.04 24.10L169.09 24.10L169.09 27.15L166.04 27.15L166.04 24.10M172.12 30.18L175.17 30.18L175.17 33.23L172.12 33.23L172.12 30.18M159.96 30.18L162.99 30.18L162.99 33.23L159.96 33.23L159.96 30.18M147.78 30.18L150.83 30.18L150.83 33.23L147.78 33.23L147.78 30.18M141.70 36.25L144.75 36.25L144.75 39.31L141.70 39.31L141.70 36.25M153.86 36.25L156.91 36.25L156.91 39.31L153.86 39.31L153.86 36.25M166.04 36.25L169.09 36.25L169.09 39.31L166.04 39.31L166.04 36.25M147.78 42.36L150.83 42.36L150.83 45.39L147.78 45.39L147.78 42.36M159.96 42.36L162.99 42.36L162.99 45.39L159.96 45.39L159.96 42.36M172.12 42.36L175.17 42.36L175.17 45.39L172.12 45.39L172.12 42.36M166.04 48.44L169.09 48.44L169.09 51.49L166.04 51.49L166.04 48.44M153.86 48.44L156.91 48.44L156.91 51.49L153.86 51.49L153.86 48.44M141.70 48.44L144.75 48.44L144.75 51.49L141.70 51.49L141.70 48.44M147.78 54.52L150.83 54.52L150.83 57.57L147.78 57.57L147.78 54.52M159.96 54.52L162.99 54.52L162.99 57.57L159.96 57.57L159.96 54.52M172.12 54.52L175.17 54.52L175.17 57.57L172.12 57.57L172.12 54.52ZM210.60 30.10L174.07 30.10L174.07-0.24L210.60-0.24L210.60 30.10ZM246.02 30.10L209.50 30.10L209.50-0.24L246.02-0.24L246.02 30.10ZM281.45 30.10L244.92 30.10L244.92-0.24L281.45-0.24L281.45 30.10ZM283.40-0.24L286.45-0.24L286.45 2.81L283.40 2.81L283.40-0.24M295.56-0.24L298.61-0.24L298.61 2.81L295.56 2.81L295.56-0.24M307.74-0.24L310.79-0.24L310.79 2.81L307.74 2.81L307.74-0.24M289.48 5.83L292.53 5.83L292.53 8.89L289.48 8.89L289.48 5.83M301.66 5.83L304.69 5.83L304.69 8.89L301.66 8.89L301.66 5.83M313.82 5.83L316.87 5.83L316.87 8.89L313.82 8.89L313.82 5.83M307.74 11.91L310.79 11.91L310.79 14.97L307.74 14.97L307.74 11.91M295.56 11.91L298.61 11.91L298.61 14.97L295.56 14.97L295.56 11.91M283.40 11.91L286.45 11.91L286.45 14.97L283.40 14.97L283.40 11.91M313.82 18.02L316.87 18.02L316.87 21.04L313.82 21.04L313.82 18.02M301.66 18.02L304.69 18.02L304.69 21.04L301.66 21.04L301.66 18.02M289.48 18.02L292.53 18.02L292.53 21.04L289.48 21.04L289.48 18.02M283.40 24.10L286.45 24.10L286.45 27.15L283.40 27.15L283.40 24.10M295.56 24.10L298.61 24.10L298.61 27.15L295.56 27.15L295.56 24.10M307.74 24.10L310.79 24.10L310.79 27.15L307.74 27.15L307.74 24.10M313.82 30.18L316.87 30.18L316.87 33.23L313.82 33.23L313.82 30.18M301.66 30.18L304.69 30.18L304.69 33.23L301.66 33.23L301.66 30.18M289.48 30.18L292.53 30.18L292.53 33.23L289.48 33.23L289.48 30.18M283.40 36.25L286.45 36.25L286.45 39.31L283.40 39.31L283.40 36.25M295.56 36.25L298.61 36.25L298.61 39.31L295.56 39.31L295.56 36.25M307.74 36.25L310.79 36.25L310.79 39.31L307.74 39.31L307.74 36.25M289.48 42.36L292.53 42.36L292.53 45.39L289.48 45.39L289.48 42.36M301.66 42.36L304.69 42.36L304.69 45.39L301.66 45.39L301.66 42.36M313.82 42.36L316.87 42.36L316.87 45.39L313.82 45.39L313.82 42.36M307.74 48.44L310.79 48.44L310.79 51.49L307.74 51.49L307.74 48.44M295.56 48.44L298.61 48.44L298.61 51.49L295.56 51.49L295.56 48.44M283.40 48.44L286.45 48.44L286.45 51.49L283.40 51.49L283.40 48.44M289.48 54.52L292.53 54.52L292.53 57.57L289.48 57.57L289.48 54.52M301.66 54.52L304.69 54.52L304.69 57.57L301.66 57.57L301.66 54.52M313.82 54.52L316.87 54.52L316.87 57.57L313.82 57.57L313.82 54.52ZM352.29 30.10L315.77 30.10L315.77-0.24L352.29-0.24L352.29 30.10ZM387.72 30.10L351.20 30.10L351.20-0.24L387.72-0.24L387.72 30.10ZM423.14 30.10L386.62 30.10L386.62-0.24L423.14-0.24L423.14 30.10ZM425.10-0.24L428.15-0.24L428.15 2.81L425.10 2.81L425.10-0.24M437.26-0.24L440.31-0.24L440.31 2.81L437.26 2.81L437.26-0.24M449.44-0.24L452.49-0.24L452.49 2.81L449.44 2.81L449.44-0.24M431.18 5.83L434.23 5.83L434.23 8.89L431.18 8.89L431.18 5.83M443.36 5.83L446.39 5.83L446.39 8.89L443.36 8.89L443.36 5.83M455.52 5.83L458.57 5.83L458.57 8.89L455.52 8.89L455.52 5.83M449.44 11.91L452.49 11.91L452.49 14.97L449.44 14.97L449.44 11.91M437.26 11.91L440.31 11.91L440.31 14.97L437.26 14.97L437.26 11.91M425.10 11.91L428.15 11.91L428.15 14.97L425.10 14.97L425.10 11.91M455.52 18.02L458.57 18.02L458.57 21.04L455.52 21.04L455.52 18.02M443.36 18.02L446.39 18.02L446.39 21.04L443.36 21.04L443.36 18.02M431.18 18.02L434.23 18.02L434.23 21.04L431.18 21.04L431.18 18.02M425.10 24.10L428.15 24.10L428.15 27.15L425.10 27.15L425.10 24.10M437.26 24.10L440.31 24.10L440.31 27.15L437.26 27.15L437.26 24.10M449.44 24.10L452.49 24.10L452.49 27.15L449.44 27.15L449.44 24.10M455.52 30.18L458.57 30.18L458.57 33.23L455.52 33.23L455.52 30.18M443.36 30.18L446.39 30.18L446.39 33.23L443.36 33.23L443.36 30.18M431.18 30.18L434.23 30.18L434.23 33.23L431.18 33.23L431.18 30.18M425.10 36.25L428.15 36.25L428.15 39.31L425.10 39.31L425.10 36.25M437.26 36.25L440.31 36.25L440.31 39.31L437.26 39.31L437.26 36.25M449.44 36.25L452.49 36.25L452.49 39.31L449.44 39.31L449.44 36.25M431.18 42.36L434.23 42.36L434.23 45.39L431.18 45.39L431.18 42.36M443.36 42.36L446.39 42.36L446.39 45.39L443.36 45.39L443.36 42.36M455.52 42.36L458.57 42.36L458.57 45.39L455.52 45.39L455.52 42.36M449.44 48.44L452.49 48.44L452.49 51.49L449.44 51.49L449.44 48.44M437.26 48.44L440.31 48.44L440.31 51.49L437.26 51.49L437.26 48.44M425.10 48.44L428.15 48.44L428.15 51.49L425.10 51.49L425.10 48.44M431.18 54.52L434.23 54.52L434.23 57.57L431.18 57.57L431.18 54.52M443.36 54.52L446.39 54.52L446.39 57.57L443.36 57.57L443.36 54.52M455.52 54.52L458.57 54.52L458.57 57.57L455.52 57.57L455.52 54.52ZM493.99 30.10L457.47 30.10L457.47-0.24L493.99-0.24L493.99 30.10ZM529.42 30.10L492.90 30.10L492.90-0.24L529.42-0.24L529.42 30.10ZM531.37-0.24L534.42-0.24L534.42 2.81L531.37 2.81L531.37-0.24M543.53-0.24L546.58-0.24L546.58 2.81L543.53 2.81L543.53-0.24M555.71-0.24L558.76-0.24L558.76 2.81L555.71 2.81L555.71-0.24M537.45 5.83L540.50 5.83L540.50 8.89L537.45 8.89L537.45 5.83M549.63 5.83L552.66 5.83L552.66 8.89L549.63 8.89L549.63 5.83M561.79 5.83L564.84 5.83L564.84 8.89L561.79 8.89L561.79 5.83M555.71 11.91L558.76 11.91L558.76 14.97L555.71 14.97L555.71 11.91M543.53 11.91L546.58 11.91L546.58 14.97L543.53 14.97L543.53 11.91M531.37 11.91L534.42 11.91L534.42 14.97L531.37 14.97L531.37 11.91M561.79 18.02L564.84 18.02L564.84 21.04L561.79 21.04L561.79 18.02M549.63 18.02L552.66 18.02L552.66 21.04L549.63 21.04L549.63 18.02M537.45 18.02L540.50 18.02L540.50 21.04L537.45 21.04L537.45 18.02M531.37 24.10L534.42 24.10L534.42 27.15L531.37 27.15L531.37 24.10M543.53 24.10L546.58 24.10L546.58 27.15L543.53 27.15L543.53 24.10M555.71 24.10L558.76 24.10L558.76 27.15L555.71 27.15L555.71 24.10M561.79 30.18L564.84 30.18L564.84 33.23L561.79 33.23L561.79 30.18M549.63 30.18L552.66 30.18L552.66 33.23L549.63 33.23L549.63 30.18M537.45 30.18L540.50 30.18L540.50 33.23L537.45 33.23L537.45 30.18M531.37 36.25L534.42 36.25L534.42 39.31L531.37 39.31L531.37 36.25M543.53 36.25L546.58 36.25L546.58 39.31L543.53 39.31L543.53 36.25M555.71 36.25L558.76 36.25L558.76 39.31L555.71 39.31L555.71 36.25M537.45 42.36L540.50 42.36L540.50 45.39L537.45 45.39L537.45 42.36M549.63 42.36L552.66 42.36L552.66 45.39L549.63 45.39L549.63 42.36M561.79 42.36L564.84 42.36L564.84 45.39L561.79 45.39L561.79 42.36M555.71 48.44L558.76 48.44L558.76 51.49L555.71 51.49L555.71 48.44M543.53 48.44L546.58 48.44L546.58 51.49L543.53 51.49L543.53 48.44M531.37 48.44L534.42 48.44L534.42 51.49L531.37 51.49L531.37 48.44M537.45 54.52L540.50 54.52L540.50 57.57L537.45 57.57L537.45 54.52M549.63 54.52L552.66 54.52L552.66 57.57L549.63 57.57L549.63 54.52M561.79 54.52L564.84 54.52L564.84 57.57L561.79 57.57L561.79 54.52ZM566.80-0.24L569.85-0.24L569.85 2.81L566.80 2.81L566.80-0.24M578.96-0.24L582.01-0.24L582.01 2.81L578.96 2.81L578.96-0.24M591.14-0.24L594.19-0.24L594.19 2.81L591.14 2.81L591.14-0.24M572.88 5.83L575.93 5.83L575.93 8.89L572.88 8.89L572.88 5.83M585.06 5.83L588.09 5.83L588.09 8.89L585.06 8.89L585.06 5.83M597.22 5.83L600.27 5.83L600.27 8.89L597.22 8.89L597.22 5.83M591.14 11.91L594.19 11.91L594.19 14.97L591.14 14.97L591.14 11.91M578.96 11.91L582.01 11.91L582.01 14.97L578.96 14.97L578.96 11.91M566.80 11.91L569.85 11.91L569.85 14.97L566.80 14.97L566.80 11.91M597.22 18.02L600.27 18.02L600.27 21.04L597.22 21.04L597.22 18.02M585.06 18.02L588.09 18.02L588.09 21.04L585.06 21.04L585.06 18.02M572.88 18.02L575.93 18.02L575.93 21.04L572.88 21.04L572.88 18.02M566.80 24.10L569.85 24.10L569.85 27.15L566.80 27.15L566.80 24.10M578.96 24.10L582.01 24.10L582.01 27.15L578.96 27.15L578.96 24.10M591.14 24.10L594.19 24.10L594.19 27.15L591.14 27.15L591.14 24.10M597.22 30.18L600.27 30.18L600.27 33.23L597.22 33.23L597.22 30.18M585.06 30.18L588.09 30.18L588.09 33.23L585.06 33.23L585.06 30.18M572.88 30.18L575.93 30.18L575.93 33.23L572.88 33.23L572.88 30.18M566.80 36.25L569.85 36.25L569.85 39.31L566.80 39.31L566.80 36.25M578.96 36.25L582.01 36.25L582.01 39.31L578.96 39.31L578.96 36.25M591.14 36.25L594.19 36.25L594.19 39.31L591.14 39.31L591.14 36.25M572.88 42.36L575.93 42.36L575.93 45.39L572.88 45.39L572.88 42.36M585.06 42.36L588.09 42.36L588.09 45.39L585.06 45.39L585.06 42.36M597.22 42.36L600.27 42.36L600.27 45.39L597.22 45.39L597.22 42.36M591.14 48.44L594.19 48.44L594.19 51.49L591.14 51.49L591.14 48.44M578.96 48.44L582.01 48.44L582.01 51.49L578.96 51.49L578.96 48.44M566.80 48.44L569.85 48.44L569.85 51.49L566.80 51.49L566.80 48.44M572.88 54.52L575.93 54.52L575.93 57.57L572.88 57.57L572.88 54.52M585.06 54.52L588.09 54.52L588.09 57.57L585.06 57.57L585.06 54.52M597.22 54.52L600.27 54.52L600.27 57.57L597.22 57.57L597.22 54.52ZM635.69 30.10L599.17 30.10L599.17-0.24L635.69-0.24L635.69 30.10ZM671.12 30.10L634.59 30.10L634.59-0.24L671.12-0.24L671.12 30.10ZM706.54 30.10L670.02 30.10L670.02-0.24L706.54-0.24L706.54 30.10ZM708.50-0.24L711.55-0.24L711.55 2.81L708.50 2.81L708.50-0.24M720.65-0.24L723.71-0.24L723.71 2.81L720.65 2.81L720.65-0.24M732.84-0.24L735.89-0.24L735.89 2.81L732.84 2.81L732.84-0.24M714.58 5.83L717.63 5.83L717.63 8.89L714.58 8.89L714.58 5.83M726.76 5.83L729.79 5.83L729.79 8.89L726.76 8.89L726.76 5.83M738.92 5.83L741.97 5.83L741.97 8.89L738.92 8.89L738.92 5.83M732.84 11.91L735.89 11.91L735.89 14.97L732.84 14.97L732.84 11.91M720.65 11.91L723.71 11.91L723.71 14.97L720.65 14.97L720.65 11.91M708.50 11.91L711.55 11.91L711.55 14.97L708.50 14.97L708.50 11.91M738.92 18.02L741.97 18.02L741.97 21.04L738.92 21.04L738.92 18.02M726.76 18.02L729.79 18.02L729.79 21.04L726.76 21.04L726.76 18.02M714.58 18.02L717.63 18.02L717.63 21.04L714.58 21.04L714.58 18.02M708.50 24.10L711.55 24.10L711.55 27.15L708.50 27.15L708.50 24.10M720.65 24.10L723.71 24.10L723.71 27.15L720.65 27.15L720.65 24.10M732.84 24.10L735.89 24.10L735.89 27.15L732.84 27.15L732.84 24.10M738.92 30.18L741.97 30.18L741.97 33.23L738.92 33.23L738.92 30.18M726.76 30.18L729.79 30.18L729.79 33.23L726.76 33.23L726.76 30.18M714.58 30.18L717.63 30.18L717.63 33.23L714.58 33.23L714.58 30.18M708.50 36.25L711.55 36.25L711.55 39.31L708.50 39.31L708.50 36.25M720.65 36.25L723.71 36.25L723.71 39.31L720.65 39.31L720.65 36.25M732.84 36.25L735.89 36.25L735.89 39.31L732.84 39.31L732.84 36.25M714.58 42.36L717.63 42.36L717.63 45.39L714.58 45.39L714.58 42.36M726.76 42.36L729.79 42.36L729.79 45.39L726.76 45.39L726.76 42.36M738.92 42.36L741.97 42.36L741.97 45.39L738.92 45.39L738.92 42.36M732.84 48.44L735.89 48.44L735.89 51.49L732.84 51.49L732.84 48.44M720.65 48.44L723.71 48.44L723.71 51.49L720.65 51.49L720.65 48.44M708.50 48.44L711.55 48.44L711.55 51.49L708.50 51.49L708.50 48.44M714.58 54.52L717.63 54.52L717.63 57.57L714.58 57.57L714.58 54.52M726.76 54.52L729.79 54.52L729.79 57.57L726.76 57.57L726.76 54.52M738.92 54.52L741.97 54.52L741.97 57.57L738.92 57.57L738.92 54.52ZM777.39 30.10L740.87 30.10L740.87-0.24L777.39-0.24L777.39 30.10ZM779.35-0.24L782.40-0.24L782.40 2.81L779.35 2.81L779.35-0.24M791.50-0.24L794.56-0.24L794.56 2.81L791.50 2.81L791.50-0.24M803.69-0.24L806.74-0.24L806.74 2.81L803.69 2.81L803.69-0.24M785.42 5.83L788.48 5.83L788.48 8.89L785.42 8.89L785.42 5.83M797.61 5.83L800.63 5.83L800.63 8.89L797.61 8.89L797.61 5.83M809.77 5.83L812.82 5.83L812.82 8.89L809.77 8.89L809.77 5.83M803.69 11.91L806.74 11.91L806.74 14.97L803.69 14.97L803.69 11.91M791.50 11.91L794.56 11.91L794.56 14.97L791.50 14.97L791.50 11.91M779.35 11.91L782.40 11.91L782.40 14.97L779.35 14.97L779.35 11.91M809.77 18.02L812.82 18.02L812.82 21.04L809.77 21.04L809.77 18.02M797.61 18.02L800.63 18.02L800.63 21.04L797.61 21.04L797.61 18.02M785.42 18.02L788.48 18.02L788.48 21.04L785.42 21.04L785.42 18.02M779.35 24.10L782.40 24.10L782.40 27.15L779.35 27.15L779.35 24.10M791.50 24.10L794.56 24.10L794.56 27.15L791.50 27.15L791.50 24.10M803.69 24.10L806.74 24.10L806.74 27.15L803.69 27.15L803.69 24.10M809.77 30.18L812.82 30.18L812.82 33.23L809.77 33.23L809.77 30.18M797.61 30.18L800.63 30.18L800.63 33.23L797.61 33.23L797.61 30.18M785.42 30.18L788.48 30.18L788.48 33.23L785.42 33.23L785.42 30.18M779.35 36.25L782.40 36.25L782.40 39.31L779.35 39.31L779.35 36.25M791.50 36.25L794.56 36.25L794.56 39.31L791.50 39.31L791.50 36.25M803.69 36.25L806.74 36.25L806.74 39.31L803.69 39.31L803.69 36.25M785.42 42.36L788.48 42.36L788.48 45.39L785.42 45.39L785.42 42.36M797.61 42.36L800.63 42.36L800.63 45.39L797.61 45.39L797.61 42.36M809.77 42.36L812.82 42.36L812.82 45.39L809.77 45.39L809.77 42.36M803.69 48.44L806.74 48.44L806.74 51.49L803.69 51.49L803.69 48.44M791.50 48.44L794.56 48.44L794.56 51.49L791.50 51.49L791.50 48.44M779.35 48.44L782.40 48.44L782.40 51.49L779.35 51.49L779.35 48.44M785.42 54.52L788.48 54.52L788.48 57.57L785.42 57.57L785.42 54.52M797.61 54.52L800.63 54.52L800.63 57.57L797.61 57.57L797.61 54.52M809.77 54.52L812.82 54.52L812.82 57.57L809.77 57.57L809.77 54.52ZM848.24 30.10L811.72 30.10L811.72-0.24L848.24-0.24L848.24 30.10ZM850.20-0.24L853.25-0.24L853.25 2.81L850.20 2.81L850.20-0.24M862.35-0.24L865.41-0.24L865.41 2.81L862.35 2.81L862.35-0.24M874.54-0.24L877.59-0.24L877.59 2.81L874.54 2.81L874.54-0.24M856.27 5.83L859.33 5.83L859.33 8.89L856.27 8.89L856.27 5.83M868.46 5.83L871.48 5.83L871.48 8.89L868.46 8.89L868.46 5.83M880.62 5.83L883.67 5.83L883.67 8.89L880.62 8.89L880.62 5.83M874.54 11.91L877.59 11.91L877.59 14.97L874.54 14.97L874.54 11.91M862.35 11.91L865.41 11.91L865.41 14.97L862.35 14.97L862.35 11.91M850.20 11.91L853.25 11.91L853.25 14.97L850.20 14.97L850.20 11.91M880.62 18.02L883.67 18.02L883.67 21.04L880.62 21.04L880.62 18.02M868.46 18.02L871.48 18.02L871.48 21.04L868.46 21.04L868.46 18.02M856.27 18.02L859.33 18.02L859.33 21.04L856.27 21.04L856.27 18.02M850.20 24.10L853.25 24.10L853.25 27.15L850.20 27.15L850.20 24.10M862.35 24.10L865.41 24.10L865.41 27.15L862.35 27.15L862.35 24.10M874.54 24.10L877.59 24.10L877.59 27.15L874.54 27.15L874.54 24.10M880.62 30.18L883.67 30.18L883.67 33.23L880.62 33.23L880.62 30.18M868.46 30.18L871.48 30.18L871.48 33.23L868.46 33.23L868.46 30.18M856.27 30.18L859.33 30.18L859.33 33.23L856.27 33.23L856.27 30.18M850.20 36.25L853.25 36.25L853.25 39.31L850.20 39.31L850.20 36.25M862.35 36.25L865.41 36.25L865.41 39.31L862.35 39.31L862.35 36.25M874.54 36.25L877.59 36.25L877.59 39.31L874.54 39.31L874.54 36.25M856.27 42.36L859.33 42.36L859.33 45.39L856.27 45.39L856.27 42.36M868.46 42.36L871.48 42.36L871.48 45.39L868.46 45.39L868.46 42.36M880.62 42.36L883.67 42.36L883.67 45.39L880.62 45.39L880.62 42.36M874.54 48.44L877.59 48.44L877.59 51.49L874.54 51.49L874.54 48.44M862.35 48.44L865.41 48.44L865.41 51.49L862.35 51.49L862.35 48.44M850.20 48.44L853.25 48.44L853.25 51.49L850.20 51.49L850.20 48.44M856.27 54.52L859.33 54.52L859.33 57.57L856.27 57.57L856.27 54.52M868.46 54.52L871.48 54.52L871.48 57.57L868.46 57.57L868.46 54.52M880.62 54.52L883.67 54.52L883.67 57.57L880.62 57.57L880.62 54.52ZM919.09 30.10L882.57 30.10L882.57-0.24L919.09-0.24L919.09 30.10ZM921.04-0.24L924.10-0.24L924.10 2.81L921.04 2.81L921.04-0.24M933.20-0.24L936.25-0.24L936.25 2.81L933.20 2.81L933.20-0.24M945.39-0.24L948.44-0.24L948.44 2.81L945.39 2.81L945.39-0.24M927.12 5.83L930.18 5.83L930.18 8.89L927.12 8.89L927.12 5.83M939.31 5.83L942.33 5.83L942.33 8.89L939.31 8.89L939.31 5.83M951.46 5.83L954.52 5.83L954.52 8.89L951.46 8.89L951.46 5.83M945.39 11.91L948.44 11.91L948.44 14.97L945.39 14.97L945.39 11.91M933.20 11.91L936.25 11.91L936.25 14.97L933.20 14.97L933.20 11.91M921.04 11.91L924.10 11.91L924.10 14.97L921.04 14.97L921.04 11.91M951.46 18.02L954.52 18.02L954.52 21.04L951.46 21.04L951.46 18.02M939.31 18.02L942.33 18.02L942.33 21.04L939.31 21.04L939.31 18.02M927.12 18.02L930.18 18.02L930.18 21.04L927.12 21.04L927.12 18.02M921.04 24.10L924.10 24.10L924.10 27.15L921.04 27.15L921.04 24.10M933.20 24.10L936.25 24.10L936.25 27.15L933.20 27.15L933.20 24.10M945.39 24.10L948.44 24.10L948.44 27.15L945.39 27.15L945.39 24.10M951.46 30.18L954.52 30.18L954.52 33.23L951.46 33.23L951.46 30.18M939.31 30.18L942.33 30.18L942.33 33.23L939.31 33.23L939.31 30.18M927.12 30.18L930.18 30.18L930.18 33.23L927.12 33.23L927.12 30.18M921.04 36.25L924.10 36.25L924.10 39.31L921.04 39.31L921.04 36.25M933.20 36.25L936.25 36.25L936.25 39.31L933.20 39.31L933.20 36.25M945.39 36.25L948.44 36.25L948.44 39.31L945.39 39.31L945.39 36.25M927.12 42.36L930.18 42.36L930.18 45.39L927.12 45.39L927.12 42.36M939.31 42.36L942.33 42.36L942.33 45.39L939.31 45.39L939.31 42.36M951.46 42.36L954.52 42.36L954.52 45.39L951.46 45.39L951.46 42.36M945.39 48.44L948.44 48.44L948.44 51.49L945.39 51.49L945.39 48.44M933.20 48.44L936.25 48.44L936.25 51.49L933.20 51.49L933.20 48.44M921.04 48.44L924.10 48.44L924.10 51.49L921.04 51.49L921.04 48.44M927.12 54.52L930.18 54.52L930.18 57.57L927.12 57.57L927.12 54.52M939.31 54.52L942.33 54.52L942.33 57.57L939.31 57.57L939.31 54.52M951.46 54.52L954.52 54.52L954.52 57.57L951.46 57.57L951.46 54.52ZM989.94 30.10L953.42 30.10L953.42-0.24L989.94-0.24L989.94 30.10ZM991.89-0.24L994.95-0.24L994.95 2.81L991.89 2.81L991.89-0.24M1004.05-0.24L1007.10-0.24L1007.10 2.81L1004.05 2.81L1004.05-0.24M1016.24-0.24L1019.29-0.24L1019.29 2.81L1016.24 2.81L1016.24-0.24M997.97 5.83L1001.03 5.83L1001.03 8.89L997.97 8.89L997.97 5.83M1010.16 5.83L1013.18 5.83L1013.18 8.89L1010.16 8.89L1010.16 5.83M1022.31 5.83L1025.37 5.83L1025.37 8.89L1022.31 8.89L1022.31 5.83M1016.24 11.91L1019.29 11.91L1019.29 14.97L1016.24 14.97L1016.24 11.91M1004.05 11.91L1007.10 11.91L1007.10 14.97L1004.05 14.97L1004.05 11.91M991.89 11.91L994.95 11.91L994.95 14.97L991.89 14.97L991.89 11.91M1022.31 18.02L1025.37 18.02L1025.37 21.04L1022.31 21.04L1022.31 18.02M1010.16 18.02L1013.18 18.02L1013.18 21.04L1010.16 21.04L1010.16 18.02M997.97 18.02L1001.03 18.02L1001.03 21.04L997.97 21.04L997.97 18.02M991.89 24.10L994.95 24.10L994.95 27.15L991.89 27.15L991.89 24.10M1004.05 24.10L1007.10 24.10L1007.10 27.15L1004.05 27.15L1004.05 24.10M1016.24 24.10L1019.29 24.10L1019.29 27.15L1016.24 27.15L1016.24 24.10M1022.31 30.18L1025.37 30.18L1025.37 33.23L1022.31 33.23L1022.31 30.18M1010.16 30.18L1013.18 30.18L1013.18 33.23L1010.16 33.23L1010.16 30.18M997.97 30.18L1001.03 30.18L1001.03 33.23L997.97 33.23L997.97 30.18M991.89 36.25L994.95 36.25L994.95 39.31L991.89 39.31L991.89 36.25M1004.05 36.25L1007.10 36.25L1007.10 39.31L1004.05 39.31L1004.05 36.25M1016.24 36.25L1019.29 36.25L1019.29 39.31L1016.24 39.31L1016.24 36.25M997.97 42.36L1001.03 42.36L1001.03 45.39L997.97 45.39L997.97 42.36M1010.16 42.36L1013.18 42.36L1013.18 45.39L1010.16 45.39L1010.16 42.36M1022.31 42.36L1025.37 42.36L1025.37 45.39L1022.31 45.39L1022.31 42.36M1016.24 48.44L1019.29 48.44L1019.29 51.49L1016.24 51.49L1016.24 48.44M1004.05 48.44L1007.10 48.44L1007.10 51.49L1004.05 51.49L1004.05 48.44M991.89 48.44L994.95 48.44L994.95 51.49L991.89 51.49L991.89 48.44M997.97 54.52L1001.03 54.52L1001.03 57.57L997.97 57.57L997.97 54.52M1010.16 54.52L1013.18 54.52L1013.18 57.57L1010.16 57.57L1010.16 54.52M1022.31 54.52L1025.37 54.52L1025.37 57.57L1022.31 57.57L1022.31 54.52ZM1027.32-0.24L1030.37-0.24L1030.37 2.81L1027.32 2.81L1027.32-0.24M1039.48-0.24L1042.53-0.24L1042.53 2.81L1039.48 2.81L1039.48-0.24M1051.66-0.24L1054.71-0.24L1054.71 2.81L1051.66 2.81L1051.66-0.24M1033.40 5.83L1036.45 5.83L1036.45 8.89L1033.40 8.89L1033.40 5.83M1045.58 5.83L1048.61 5.83L1048.61 8.89L1045.58 8.89L1045.58 5.83M1057.74 5.83L1060.79 5.83L1060.79 8.89L1057.74 8.89L1057.74 5.83M1051.66 11.91L1054.71 11.91L1054.71 14.97L1051.66 14.97L1051.66 11.91M1039.48 11.91L1042.53 11.91L1042.53 14.97L1039.48 14.97L1039.48 11.91M1027.32 11.91L1030.37 11.91L1030.37 14.97L1027.32 14.97L1027.32 11.91M1057.74 18.02L1060.79 18.02L1060.79 21.04L1057.74 21.04L1057.74 18.02M1045.58 18.02L1048.61 18.02L1048.61 21.04L1045.58 21.04L1045.58 18.02M1033.40 18.02L1036.45 18.02L1036.45 21.04L1033.40 21.04L1033.40 18.02M1027.32 24.10L1030.37 24.10L1030.37 27.15L1027.32 27.15L1027.32 24.10M1039.48 24.10L1042.53 24.10L1042.53 27.15L1039.48 27.15L1039.48 24.10M1051.66 24.10L1054.71 24.10L1054.71 27.15L1051.66 27.15L1051.66 24.10M1057.74 30.18L1060.79 30.18L1060.79 33.23L1057.74 33.23L1057.74 30.18M1045.58 30.18L1048.61 30.18L1048.61 33.23L1045.58 33.23L1045.58 30.18M1033.40 30.18L1036.45 30.18L1036.45 33.23L1033.40 33.23L1033.40 30.18M1027.32 36.25L1030.37 36.25L1030.37 39.31L1027.32 39.31L1027.32 36.25M1039.48 36.25L1042.53 36.25L1042.53 39.31L1039.48 39.31L1039.48 36.25M1051.66 36.25L1054.71 36.25L1054.71 39.31L1051.66 39.31L1051.66 36.25M1033.40 42.36L1036.45 42.36L1036.45 45.39L1033.40 45.39L1033.40 42.36M1045.58 42.36L1048.61 42.36L1048.61 45.39L1045.58 45.39L1045.58 42.36M1057.74 42.36L1060.79 42.36L1060.79 45.39L1057.74 45.39L1057.74 42.36M1051.66 48.44L1054.71 48.44L1054.71 51.49L1051.66 51.49L1051.66 48.44M1039.48 48.44L1042.53 48.44L1042.53 51.49L1039.48 51.49L1039.48 48.44M1027.32 48.44L1030.37 48.44L1030.37 51.49L1027.32 51.49L1027.32 48.44M1033.40 54.52L1036.45 54.52L1036.45 57.57L1033.40 57.57L1033.40 54.52M1045.58 54.52L1048.61 54.52L1048.61 57.57L1045.58 57.57L1045.58 54.52M1057.74 54.52L1060.79 54.52L1060.79 57.57L1057.74 57.57L1057.74 54.52ZM1096.22 30.10L1059.69 30.10L1059.69-0.24L1096.22-0.24L1096.22 30.10ZM1098.17-0.24L1101.22-0.24L1101.22 2.81L1098.17 2.81L1098.17-0.24M1110.33-0.24L1113.38-0.24L1113.38 2.81L1110.33 2.81L1110.33-0.24M1122.51-0.24L1125.56-0.24L1125.56 2.81L1122.51 2.81L1122.51-0.24M1104.25 5.83L1107.30 5.83L1107.30 8.89L1104.25 8.89L1104.25 5.83M1116.43 5.83L1119.46 5.83L1119.46 8.89L1116.43 8.89L1116.43 5.83M1128.59 5.83L1131.64 5.83L1131.64 8.89L1128.59 8.89L1128.59 5.83M1122.51 11.91L1125.56 11.91L1125.56 14.97L1122.51 14.97L1122.51 11.91M1110.33 11.91L1113.38 11.91L1113.38 14.97L1110.33 14.97L1110.33 11.91M1098.17 11.91L1101.22 11.91L1101.22 14.97L1098.17 14.97L1098.17 11.91M1128.59 18.02L1131.64 18.02L1131.64 21.04L1128.59 21.04L1128.59 18.02M1116.43 18.02L1119.46 18.02L1119.46 21.04L1116.43 21.04L1116.43 18.02M1104.25 18.02L1107.30 18.02L1107.30 21.04L1104.25 21.04L1104.25 18.02M1098.17 24.10L1101.22 24.10L1101.22 27.15L1098.17 27.15L1098.17 24.10M1110.33 24.10L1113.38 24.10L1113.38 27.15L1110.33 27.15L1110.33 24.10M1122.51 24.10L1125.56 24.10L1125.56 27.15L1122.51 27.15L1122.51 24.10M1128.59 30.18L1131.64 30.18L1131.64 33.23L1128.59 33.23L1128.59 30.18M1116.43 30.18L1119.46 30.18L1119.46 33.23L1116.43 33.23L1116.43 30.18M1104.25 30.18L1107.30 30.18L1107.30 33.23L1104.25 33.23L1104.25 30.18M1098.17 36.25L1101.22 36.25L1101.22 39.31L1098.17 39.31L1098.17 36.25M1110.33 36.25L1113.38 36.25L1113.38 39.31L1110.33 39.31L1110.33 36.25M1122.51 36.25L1125.56 36.25L1125.56 39.31L1122.51 39.31L1122.51 36.25M1104.25 42.36L1107.30 42.36L1107.30 45.39L1104.25 45.39L1104.25 42.36M1116.43 42.36L1119.46 42.36L1119.46 45.39L1116.43 45.39L1116.43 42.36M1128.59 42.36L1131.64 42.36L1131.64 45.39L1128.59 45.39L1128.59 42.36M1122.51 48.44L1125.56 48.44L1125.56 51.49L1122.51 51.49L1122.51 48.44M1110.33 48.44L1113.38 48.44L1113.38 51.49L1110.33 51.49L1110.33 48.44M1098.17 48.44L1101.22 48.44L1101.22 51.49L1098.17 51.49L1098.17 48.44M1104.25 54.52L1107.30 54.52L1107.30 57.57L1104.25 57.57L1104.25 54.52M1116.43 54.52L1119.46 54.52L1119.46 57.57L1116.43 57.57L1116.43 54.52M1128.59 54.52L1131.64 54.52L1131.64 57.57L1128.59 57.57L1128.59 54.52Z"/></g></g></svg>